<svg width="44" height="44" viewBox="0 0 44 44" fill="none" xmlns="http://www.w3.org/2000/svg">
<circle cx="21.75" cy="21.75" r="21.75" fill="#15191D"/>
<path d="M12 20.88C12 18.74 13.74 17 15.88 17C18.02 17 19.76 18.74 19.76 20.88C19.76 23.02 18.02 24.76 15.88 24.76C13.74 24.76 12 23.02 12 20.88ZM18.163 20.937C18.908 20.7 19.212 19.867 18.843 19.072C18.476 18.284 17.583 17.826 16.837 18.062C16.092 18.299 15.788 19.132 16.157 19.928C16.524 20.723 17.417 21.174 18.163 20.937ZM25.88 17C23.74 17 22 18.74 22 20.88C22 23.02 23.74 24.76 25.88 24.76C28.02 24.76 29.76 23.02 29.76 20.88C29.76 18.74 28.02 17 25.88 17ZM28.844 19.072C29.212 19.867 28.908 20.7 28.163 20.937C27.417 21.174 26.524 20.723 26.156 19.927C25.788 19.133 26.092 18.299 26.837 18.063C27.574 17.825 28.476 18.284 28.844 19.072ZM16.582 12.007C16.4514 11.9853 16.3175 12.0163 16.2097 12.0931C16.1019 12.17 16.029 12.2865 16.007 12.417L16.004 12.433L15.987 12.508C15.8734 12.9383 15.6786 13.3429 15.413 13.7C14.936 14.335 14.08 15 12.5 15C12.3674 15 12.2402 15.0527 12.1464 15.1465C12.0527 15.2402 12 15.3674 12 15.5C12 15.6326 12.0527 15.7598 12.1464 15.8536C12.2402 15.9473 12.3674 16 12.5 16C14.42 16 15.563 15.165 16.213 14.3C16.5585 13.8361 16.8112 13.3098 16.957 12.75C16.9693 12.7003 16.9803 12.6503 16.99 12.6L16.992 12.589V12.585L16.993 12.583C17.015 12.4523 16.9842 12.3181 16.9073 12.2101C16.8304 12.1021 16.7137 12.029 16.583 12.007H16.582ZM25.996 12.433L25.993 12.417C25.9684 12.2888 25.8946 12.1754 25.7874 12.1009C25.6803 12.0263 25.5482 11.9967 25.4195 12.0182C25.2907 12.0398 25.1755 12.1108 25.0985 12.2162C25.0214 12.3215 24.9886 12.4528 25.007 12.582C24.514 12.664 25.007 12.583 25.007 12.583V12.589L25.01 12.599C25.0189 12.6498 25.0299 12.7002 25.043 12.75C25.1888 13.3098 25.4415 13.8361 25.787 14.3C26.437 15.165 27.58 16 29.5 16C29.6326 16 29.7598 15.9473 29.8536 15.8536C29.9473 15.7598 30 15.6326 30 15.5C30 15.3674 29.9473 15.2402 29.8536 15.1465C29.7598 15.0527 29.6326 15 29.5 15C27.92 15 27.063 14.335 26.587 13.7C26.3214 13.3429 26.1266 12.9383 26.013 12.508C26.0068 12.4831 26.0011 12.4581 25.996 12.433ZM19.881 30.473C19.7549 30.7009 19.5448 30.8706 19.2954 30.946C19.0461 31.0214 18.7772 30.9965 18.5459 30.8766C18.3146 30.7568 18.1392 30.5514 18.0571 30.3042C17.9749 30.057 17.9925 29.7875 18.106 29.553V29.551L18.108 29.548L18.11 29.544L18.116 29.533L18.123 29.52L18.13 29.507C18.1815 29.4157 18.239 29.3278 18.302 29.244C18.414 29.094 18.581 28.904 18.812 28.719C19.29 28.337 20.008 28 21 28C21.993 28 22.71 28.337 23.187 28.72C23.4397 28.922 23.657 29.1647 23.83 29.438L23.87 29.507L23.877 29.519L23.884 29.533L23.89 29.543L23.892 29.548L23.893 29.551L23.894 29.553L23.895 29.554C24.017 29.7895 24.0404 30.0639 23.9602 30.3167C23.8799 30.5695 23.7025 30.78 23.467 30.902C23.2315 31.024 22.9572 31.0475 22.7044 30.9672C22.4516 30.8869 22.241 30.7095 22.119 30.474C22.0682 30.4017 22.0072 30.337 21.938 30.282C21.79 30.162 21.508 30 21 30C20.493 30 20.21 30.162 20.062 30.28C19.9927 30.3353 19.9317 30.4003 19.881 30.473Z" fill="white"/>
<path d="M20.999 6C16.095 6 12.313 7.654 9.763 10.423C7.226 13.178 6 16.938 6 20.999C6 25.06 7.226 28.819 9.763 31.575C12.313 34.344 16.095 35.998 20.999 35.998C25.903 35.998 29.685 34.344 32.234 31.575C34.771 28.82 35.998 25.06 35.998 20.999C35.998 16.938 34.771 13.178 32.234 10.423C29.684 7.654 25.903 6 21 6H20.999ZM8 20.999C8 17.329 9.106 14.089 11.235 11.778C13.35 9.48 16.568 8 20.999 8C25.429 8 28.647 9.48 30.763 11.778C32.892 14.089 33.998 17.328 33.998 20.998C33.998 24.669 32.892 27.908 30.763 30.22C28.647 32.518 25.43 33.998 20.999 33.998C16.569 33.998 13.351 32.518 11.235 30.22C9.105 27.91 8 24.67 8 21V20.999Z" fill="white"/>
</svg>
