<svg width="44" height="44" viewBox="0 0 44 44" fill="none" xmlns="http://www.w3.org/2000/svg">
<circle cx="21.75" cy="21.75" r="21.75" fill="#15191D"/>
<path d="M28.758 17.1709C28.3756 14.2985 26.9164 11.6785 24.6756 9.84118C22.4349 8.00382 19.5798 7.08622 16.6881 7.27405C13.7965 7.46188 11.0841 8.74111 9.09985 10.8529C7.11558 12.9647 6.00757 15.7514 6 18.6491C6 21.3514 6.93837 23.8352 8.50804 25.7919C9.66208 27.233 10.2848 28.8256 10.2848 30.5123V35.7884H23.1392L23.1406 31.5036H25.9957C26.7533 31.5036 27.4799 31.2026 28.0156 30.6669C28.5513 30.1312 28.8523 29.4046 28.8523 28.647V24.4636L31.6517 23.2639C32.1401 23.0554 32.183 22.5583 31.9716 22.2255L28.758 17.1695V17.1709ZM8.85653 18.6491C8.85434 16.4714 9.68137 14.3744 11.1696 12.7844C12.6578 11.1945 14.6955 10.2307 16.8687 10.0891C19.0419 9.9474 21.1875 10.6384 22.8695 12.0217C24.5515 13.4051 25.6438 15.3769 25.9243 17.5365L26.0057 18.1678L28.2096 21.6314L25.9957 22.5797V28.647H20.2855L20.2827 32.9318H13.1413V30.5123C13.1413 28.1714 12.2972 25.9533 10.7347 24.0051C9.51498 22.4869 8.85213 20.5967 8.85653 18.6491ZM34.7853 30.221L32.4072 28.6356C33.8178 26.5256 34.569 24.0438 34.5653 21.5057C34.5698 18.9673 33.8191 16.4849 32.4087 14.3743L34.7853 12.789C36.5095 15.3686 37.4273 18.4029 37.4219 21.5057C37.4219 24.7307 36.4507 27.7272 34.7853 30.221Z" fill="white"/>
</svg>
