<svg width="64" height="159" viewBox="0 0 64 159" fill="none" xmlns="http://www.w3.org/2000/svg">
<path d="M0 52C0 49.2386 2.23858 47 5 47H59C61.7614 47 64 49.2386 64 52V106C64 108.761 61.7614 111 59 111H5C2.23858 111 0 108.761 0 106V52Z" fill="#BCE743"/>
<path d="M39.8953 100.284L35.9325 94.956C34.7584 95.1908 33.6136 95.3082 32.4981 95.3082C29.5921 95.3082 26.9209 94.6331 24.4845 93.2828C22.0775 91.9325 20.1548 90.0539 18.7165 87.6469C17.3075 85.2105 16.603 82.4806 16.603 79.4571C16.603 76.4337 17.3075 73.7185 18.7165 71.3114C20.1548 68.9044 22.0775 67.0258 24.4845 65.6755C26.9209 64.3252 29.5921 63.6501 32.4981 63.6501C35.4041 63.6501 38.0607 64.3252 40.4677 65.6755C42.904 67.0258 44.812 68.9044 46.1917 71.3114C47.6007 73.7185 48.3052 76.4337 48.3052 79.4571C48.3052 82.099 47.7621 84.5207 46.676 86.7222C45.6193 88.8944 44.1369 90.6997 42.2289 92.138L49.0096 100.284H39.8953ZM24.3084 79.4571C24.3084 82.187 25.0422 84.3739 26.5099 86.0177C28.007 87.6322 30.003 88.4394 32.4981 88.4394C34.9638 88.4394 36.9305 87.6175 38.3982 85.9737C39.8953 84.3299 40.6438 82.1577 40.6438 79.4571C40.6438 76.7272 39.8953 74.555 38.3982 72.9406C36.9305 71.2968 34.9638 70.4749 32.4981 70.4749C30.003 70.4749 28.007 71.2821 26.5099 72.8966C25.0422 74.511 24.3084 76.6979 24.3084 79.4571Z" fill="#15191D"/>
</svg>
