<svg width="243" height="37" viewBox="0 0 243 37" fill="none" xmlns="http://www.w3.org/2000/svg">
<path d="M5.796 24.252C4.332 24.252 3.162 23.838 2.286 23.01C1.422 22.17 0.99 20.91 0.99 19.23V16.17C0.99 14.526 1.422 13.278 2.286 12.426C3.162 11.574 4.332 11.148 5.796 11.148C7.272 11.148 8.442 11.574 9.306 12.426C10.182 13.278 10.62 14.526 10.62 16.17V19.23C10.62 20.91 10.182 22.17 9.306 23.01C8.442 23.838 7.272 24.252 5.796 24.252ZM5.796 22.56C6.792 22.56 7.53 22.278 8.01 21.714C8.49 21.138 8.73 20.334 8.73 19.302V16.062C8.73 15.03 8.472 14.238 7.956 13.686C7.44 13.122 6.72 12.84 5.796 12.84C4.86 12.84 4.14 13.128 3.636 13.704C3.132 14.268 2.88 15.054 2.88 16.062V19.302C2.88 20.358 3.12 21.168 3.6 21.732C4.092 22.284 4.824 22.56 5.796 22.56ZM18.9276 24V12.732H18.6396L16.5696 16.98H14.5716L17.3616 11.4H20.8176V24H18.9276Z" fill="white"/>
<path d="M216.796 24.252C215.332 24.252 214.162 23.838 213.286 23.01C212.422 22.17 211.99 20.91 211.99 19.23V16.17C211.99 14.526 212.422 13.278 213.286 12.426C214.162 11.574 215.332 11.148 216.796 11.148C218.272 11.148 219.442 11.574 220.306 12.426C221.182 13.278 221.62 14.526 221.62 16.17V19.23C221.62 20.91 221.182 22.17 220.306 23.01C219.442 23.838 218.272 24.252 216.796 24.252ZM216.796 22.56C217.792 22.56 218.53 22.278 219.01 21.714C219.49 21.138 219.73 20.334 219.73 19.302V16.062C219.73 15.03 219.472 14.238 218.956 13.686C218.44 13.122 217.72 12.84 216.796 12.84C215.86 12.84 215.14 13.128 214.636 13.704C214.132 14.268 213.88 15.054 213.88 16.062V19.302C213.88 20.358 214.12 21.168 214.6 21.732C215.092 22.284 215.824 22.56 216.796 22.56ZM232.196 24V21.426H225.824V19.23L230.648 11.4H234.086V19.752H236.21V21.426H234.086V24H232.196ZM227.66 19.752H232.196V12.588H231.908L227.66 19.5V19.752Z" fill="white"/>
<path d="M33 18H71" stroke="#BCE743" stroke-width="4"/>
<path d="M196 18L71 18" stroke="#404953" stroke-width="4"/>
</svg>
