<svg width="1867" height="1659" viewBox="0 0 1867 1659" fill="none" xmlns="http://www.w3.org/2000/svg">
<path fill-rule="evenodd" clip-rule="evenodd" d="M522.619 -677.481C631.1 -761.795 752.574 -761.801 878.567 -740.557C920.187 -733.539 962.279 -724.207 1004.55 -714.834L1004.55 -714.834C1026.27 -710.019 1048.04 -705.193 1069.82 -700.664C1133.96 -687.325 1198.16 -676.575 1261.33 -676.328C1324.22 -676.082 1387.85 -685.517 1451.37 -697.34C1472.9 -701.349 1494.42 -705.631 1515.89 -709.905C1557.76 -718.236 1599.44 -726.532 1640.72 -732.691C1765.59 -751.327 1886.56 -750.377 1996.87 -671.704C2227.1 -507.508 2381.98 -179.992 2431.23 157.854C2454.48 317.31 2425.62 469.079 2382.96 620.308C2368.28 672.356 2351.96 724.321 2335.58 776.512L2335.57 776.536L2335.55 776.611C2328.14 800.215 2320.72 823.864 2313.42 847.588C2289.99 923.791 2267.91 1000.74 2251.99 1079.31C2234.77 1164.23 2224.94 1253.1 2216.93 1342.49C2214.38 1370.89 2212.02 1399.33 2209.66 1427.72L2209.65 1427.83L2209.65 1427.85C2204.59 1488.81 2199.55 1549.52 2192.77 1608.91C2172.86 1783.1 2137.96 1945.82 2043.61 2070.11C1846.32 2329.99 1532.95 2471.42 1261.45 2384.41C1131.25 2342.69 1048.12 2210.98 970.771 2062.91C956.99 2036.54 943.393 2009.64 929.745 1982.64C866.819 1858.16 802.819 1731.56 714.853 1644.01C663.171 1592.57 602.798 1556.5 539.511 1526.59C499.283 1507.57 457.849 1491.02 416.718 1474.6L416.699 1474.59L416.694 1474.59C393.142 1465.19 369.688 1455.82 346.616 1446.06C219.81 1392.37 104.411 1326.49 46.1437 1174.92C-12.4715 1022.44 -6.45599 855.9 24.6634 686.909C45.5846 573.298 77.8333 458.66 109.391 346.479L109.391 346.478C124.783 291.763 140.01 237.633 153.678 184.492C164.001 144.357 174.053 103.449 184.176 62.2531L184.176 62.2524C214.448 -60.9404 245.353 -186.712 286.032 -302.107C340.308 -456.074 411.952 -591.467 522.619 -677.481ZM1261.33 -677.624C1198.25 -677.871 1134.11 -688.608 1069.97 -701.944C1048.22 -706.468 1026.47 -711.291 1004.75 -716.105L1004.75 -716.106C962.462 -725.481 920.335 -734.821 878.696 -741.842C752.646 -763.096 630.886 -763.139 522.105 -678.592C411.194 -592.389 339.44 -456.731 285.122 -302.646C244.416 -187.172 213.484 -61.2925 183.208 61.9197C173.089 103.101 163.043 143.984 152.73 184.082C139.08 237.148 123.864 291.24 108.478 345.935L108.477 345.938C76.909 458.16 44.6249 572.926 23.6908 686.608C-7.45255 855.729 -13.5178 1022.63 45.2487 1175.5C103.716 1327.59 219.494 1393.6 346.306 1447.29C369.414 1457.07 392.885 1466.44 416.446 1475.85C457.563 1492.27 498.954 1508.79 539.169 1527.8C602.411 1557.7 662.677 1593.72 714.244 1645.04C802.062 1732.44 865.948 1858.81 928.873 1983.28C942.53 2010.3 956.141 2037.22 969.942 2063.64C1047.3 2211.71 1130.61 2343.82 1261.21 2385.67C1533.1 2472.81 1846.82 2331.17 2044.32 2071.02C2138.91 1946.43 2173.84 1783.36 2193.75 1609.1C2200.54 1549.68 2205.59 1488.93 2210.65 1427.95C2213.01 1399.52 2215.38 1371.05 2217.92 1342.64C2225.93 1253.26 2235.76 1164.47 2252.95 1079.64C2268.86 1001.15 2290.93 924.257 2314.35 848.068C2321.65 824.342 2329.07 800.681 2336.49 777.061L2336.49 777.05L2336.5 777.036C2352.88 724.832 2369.21 672.827 2383.9 620.754C2426.58 469.458 2455.51 317.419 2432.22 157.614C2382.92 -180.527 2227.89 -508.418 1997.35 -672.84C1886.76 -751.713 1765.54 -752.623 1640.6 -733.979C1599.31 -727.817 1557.59 -719.514 1515.72 -711.18C1494.25 -706.908 1472.74 -702.628 1451.23 -698.623C1387.73 -686.803 1324.15 -677.379 1261.33 -677.624ZM913.993 -577.774C801.059 -596.815 692.188 -596.806 594.964 -521.246C495.777 -444.16 431.563 -322.819 382.914 -184.821C346.452 -81.394 318.751 31.3318 291.616 141.751L291.612 141.768C282.54 178.687 273.53 215.349 264.278 251.32C252.025 298.955 238.375 347.476 224.578 396.519C196.291 497.066 167.386 599.812 148.634 701.64C120.74 853.103 115.351 1002.36 167.884 1139.01C220.103 1274.84 323.524 1333.88 437.189 1382C457.868 1390.75 478.89 1399.15 500.001 1407.57L500.004 1407.57L500.007 1407.58L500.026 1407.58L500.062 1407.6C536.919 1422.31 574.049 1437.14 610.097 1454.18C666.827 1481 720.95 1513.33 767.283 1559.44C846.14 1637.92 903.514 1751.41 959.919 1862.98L959.929 1863C972.159 1887.19 984.343 1911.29 996.691 1934.93C1066.03 2067.64 1140.53 2185.67 1257.22 2223.07C1500.56 2301.05 1781.44 2174.29 1958.27 1941.37C2042.84 1829.98 2074.12 1684.15 2091.96 1528.02C2098.04 1474.79 2102.56 1420.38 2107.1 1365.74V1365.73V1365.73L2107.1 1365.72L2107.1 1365.71C2109.22 1340.23 2111.33 1314.71 2113.62 1289.23C2120.8 1209.1 2129.61 1129.45 2145.05 1053.32C2159.32 982.897 2179.12 913.922 2200.12 845.62C2206.65 824.359 2213.31 803.166 2219.95 782.015L2219.96 781.961L2219.98 781.926C2234.66 735.142 2249.29 688.562 2262.45 641.906C2300.69 506.36 2326.55 370.341 2305.72 227.435C2261.57 -75.3676 2122.74 -368.907 1916.39 -516.067C1817.52 -586.573 1709.11 -587.427 1597.18 -570.724C1560.18 -565.203 1522.82 -557.768 1485.29 -550.3C1466.04 -546.47 1446.76 -542.631 1427.45 -539.038C1370.52 -528.441 1313.47 -519.983 1257.1 -520.204C1200.47 -520.425 1142.92 -530.061 1085.42 -542.018C1065.9 -546.076 1046.39 -550.402 1026.93 -554.718L1026.92 -554.719L1026.92 -554.719L1026.92 -554.72C989.024 -563.12 951.297 -571.484 913.993 -577.774ZM1085.58 -543.297C1143.07 -531.344 1200.56 -521.721 1257.1 -521.5C1313.4 -521.28 1370.39 -529.726 1427.31 -540.321C1446.59 -543.91 1465.87 -547.747 1485.11 -551.576C1522.65 -559.046 1560.05 -566.488 1597.06 -572.011C1709.05 -588.723 1817.72 -587.909 1916.87 -517.203C2123.54 -369.817 2262.51 -75.9023 2306.7 227.195C2327.58 370.449 2301.65 506.739 2263.39 642.351C2250.22 689.023 2235.59 735.634 2220.9 782.422L2220.89 782.449L2220.89 782.456C2214.24 803.627 2207.58 824.834 2201.05 846.1C2180.05 914.389 2160.27 983.305 2146.01 1053.65C2130.6 1129.69 2121.79 1209.27 2114.61 1289.38C2112.33 1314.81 2110.22 1340.29 2108.1 1365.73L2108.1 1365.84C2103.56 1420.49 2099.04 1474.95 2092.95 1528.21C2075.1 1684.41 2043.78 1830.59 1958.99 1942.27C1781.94 2175.47 1500.71 2302.43 1256.98 2224.32C1139.89 2186.8 1065.2 2068.37 995.863 1935.65C983.496 1911.98 971.299 1887.86 959.061 1863.65L959.057 1863.64L959.047 1863.62C902.643 1752.06 845.383 1638.8 766.674 1560.47C720.456 1514.47 666.441 1482.19 609.754 1455.4C573.711 1438.36 536.617 1423.55 499.765 1408.84L499.76 1408.83L499.754 1408.83C478.634 1400.4 457.595 1392 436.879 1383.23C323.208 1335.11 219.408 1275.93 166.989 1139.58C114.305 1002.54 119.744 852.932 147.661 701.339C166.427 599.441 195.367 496.567 223.665 395.978C237.456 346.953 251.095 298.472 263.329 250.91C272.573 214.972 281.578 178.328 290.648 141.418L290.649 141.417C317.787 30.9785 345.515 -81.8553 382.004 -185.36C430.695 -323.476 495.019 -445.082 594.45 -522.358C691.974 -598.151 801.131 -598.11 914.122 -579.059C951.447 -572.766 989.211 -564.394 1027.12 -555.99L1027.12 -555.989L1027.12 -555.989C1046.58 -551.674 1066.08 -547.351 1085.58 -543.297ZM660.438 -379.853C747.474 -447.491 844.94 -447.501 946.055 -430.454C979.457 -424.822 1013.24 -417.334 1047.16 -409.813L1047.17 -409.812C1064.6 -405.948 1082.07 -402.075 1099.55 -398.441C1151.03 -387.736 1202.57 -379.108 1253.27 -378.91C1303.75 -378.713 1354.83 -386.285 1405.81 -395.773C1423.09 -398.99 1440.36 -402.426 1457.59 -405.855L1457.6 -405.857C1491.2 -412.542 1524.65 -419.199 1557.77 -424.142C1657.99 -439.096 1755.05 -438.33 1843.56 -375.215C2028.31 -243.471 2152.6 19.3188 2192.13 290.407C2210.78 418.334 2187.62 540.101 2153.39 661.454C2141.6 703.225 2128.51 744.927 2115.36 786.814C2109.4 805.777 2103.44 824.778 2097.58 843.84C2078.77 904.992 2061.05 966.75 2048.27 1029.81C2034.45 1097.97 2026.56 1169.29 2020.13 1241.03C2018.08 1263.85 2016.18 1286.71 2014.29 1309.52C2010.22 1358.45 2006.18 1407.16 2000.73 1454.82C1984.76 1594.6 1956.75 1725.15 1881.05 1824.86C1722.72 2033.38 1471.25 2146.86 1253.39 2077.05C1148.93 2043.58 1082.23 1937.92 1020.15 1819.1C1009.1 1797.94 998.188 1776.37 987.238 1754.71L987.235 1754.7L987.232 1754.7L987.228 1754.69C936.724 1654.79 885.348 1553.17 814.733 1482.9C773.241 1441.62 724.776 1412.67 673.978 1388.65C641.684 1373.39 608.42 1360.11 575.401 1346.93C556.497 1339.38 537.674 1331.86 519.16 1324.03C417.387 1280.95 324.806 1228.09 278.061 1106.51C231.032 984.186 235.855 850.574 260.829 714.973C277.618 623.809 303.497 531.826 328.824 441.807C341.178 397.896 353.4 354.453 364.372 311.8C372.654 279.605 380.719 246.791 388.839 213.747L388.845 213.723L388.848 213.71L388.851 213.698L388.852 213.697C413.147 114.838 437.948 13.9189 470.594 -78.6766C514.151 -202.221 571.641 -310.847 660.438 -379.853ZM1253.27 -380.206C1202.65 -380.404 1151.18 -389.019 1099.71 -399.721C1082.25 -403.351 1064.79 -407.221 1047.36 -411.085L1047.36 -411.085C1013.42 -418.609 979.604 -426.105 946.184 -431.739C845.012 -448.796 747.26 -448.836 659.924 -380.965C570.883 -311.769 513.283 -202.879 469.684 -79.2153C437.011 13.4583 412.183 114.486 387.883 213.364L387.883 213.367L387.882 213.371L387.881 213.374C379.761 246.417 371.699 279.22 363.424 311.39C352.471 353.969 340.259 397.374 327.911 441.265L327.911 441.266C302.573 531.327 276.659 623.438 259.856 714.672C234.858 850.403 229.985 984.371 277.166 1107.09C324.111 1229.19 417.07 1282.18 518.849 1325.26C537.375 1333.1 556.189 1340.61 575.073 1348.15L575.093 1348.16L575.121 1348.17L575.147 1348.18C608.146 1361.36 641.361 1374.62 673.636 1389.87C724.39 1413.86 772.748 1442.76 814.124 1483.93C884.591 1554.05 935.854 1655.45 986.357 1755.33C997.318 1777.01 1008.24 1798.62 1019.32 1819.83C1081.41 1938.65 1148.29 2044.71 1253.15 2078.31C1471.41 2148.24 1723.23 2034.57 1881.76 1825.76C1957.7 1725.75 1985.74 1594.86 2001.72 1455.01C2007.17 1407.32 2011.22 1358.56 2015.28 1309.63C2017.18 1286.82 2019.08 1263.97 2021.12 1241.18C2027.55 1169.45 2035.43 1098.21 2049.23 1030.14C2062 967.158 2079.71 905.459 2098.51 844.32C2104.36 825.277 2110.32 806.286 2116.28 787.327L2116.28 787.321L2116.28 787.314L2116.28 787.307C2129.43 745.417 2142.54 703.685 2154.33 661.899C2188.58 540.479 2211.81 418.443 2193.11 290.167C2153.54 18.784 2029.1 -244.382 1844.04 -376.351C1755.25 -439.665 1657.93 -440.392 1557.66 -425.429C1524.52 -420.484 1491.03 -413.821 1457.42 -407.133C1440.19 -403.704 1422.93 -400.269 1405.66 -397.056C1354.7 -387.571 1303.68 -380.009 1253.27 -380.206ZM975.459 -295.343C885.183 -310.562 798.178 -310.55 720.485 -250.178C641.217 -188.582 589.894 -91.619 551.007 18.6711C521.861 101.333 499.719 191.425 478.028 279.682L478.027 279.685L478.026 279.688L478.025 279.692L478.024 279.695C470.771 309.207 463.568 338.513 456.171 367.268C446.374 405.351 435.46 444.138 424.43 483.34C401.818 563.704 378.715 645.817 363.725 727.201C341.429 848.254 337.125 967.519 379.106 1076.7C420.831 1185.22 503.47 1232.4 594.336 1270.86C610.866 1277.86 627.672 1284.57 644.55 1291.3L644.553 1291.31L644.57 1291.31C674.044 1303.08 703.738 1314.93 732.565 1328.56C777.921 1350 821.199 1375.84 858.25 1412.71C921.305 1475.45 967.182 1566.19 1012.27 1655.37L1012.28 1655.38L1012.28 1655.39L1012.3 1655.43L1012.33 1655.49C1022.09 1674.79 1031.81 1694.02 1041.67 1712.87C1097.09 1818.95 1156.63 1913.25 1249.88 1943.13C1444.37 2005.45 1668.88 1904.15 1810.22 1718C1877.8 1629 1902.81 1512.47 1917.07 1387.69C1921.93 1345.13 1925.54 1301.65 1929.17 1257.97C1930.86 1237.6 1932.55 1217.19 1934.38 1196.82C1940.12 1132.77 1947.17 1069.1 1959.51 1008.24C1970.92 951.94 1986.75 896.802 2003.54 842.207C2008.77 825.192 2014.09 808.231 2019.41 791.305L2019.41 791.304L2019.41 791.302L2019.41 791.301L2019.41 791.299L2019.41 791.29C2031.15 753.897 2042.84 716.67 2053.36 679.381C2083.93 571.045 2104.6 462.35 2087.95 348.16C2052.66 106.158 1941.69 -128.432 1776.76 -246.036C1697.75 -302.372 1611.11 -303.058 1521.64 -289.708C1492.06 -285.295 1462.2 -279.353 1432.2 -273.384L1432.2 -273.384L1432.2 -273.384C1416.81 -270.322 1401.39 -267.254 1385.96 -264.381C1340.44 -255.911 1294.83 -249.15 1249.76 -249.326C1204.48 -249.503 1158.47 -257.206 1112.5 -266.764C1096.89 -270.009 1081.29 -273.467 1065.73 -276.917C1035.44 -283.631 1005.28 -290.316 975.459 -295.343ZM1112.66 -268.043C1158.61 -258.489 1204.57 -250.799 1249.76 -250.622C1294.76 -250.446 1340.31 -257.197 1385.81 -265.664C1401.23 -268.533 1416.63 -271.599 1432.01 -274.659L1432.02 -274.66L1432.02 -274.661L1432.02 -274.661L1432.03 -274.661L1432.03 -274.661C1462.04 -280.632 1491.93 -286.581 1521.52 -290.995C1611.05 -304.354 1697.95 -303.707 1777.24 -247.171C1942.49 -129.343 2053.6 105.623 2088.93 347.92C2105.63 462.459 2084.89 571.423 2054.3 679.826C2043.77 717.14 2032.07 754.406 2020.33 791.813L2020.32 791.825L2020.32 791.837L2020.32 791.849L2020.31 791.861C2015 808.769 2009.69 825.705 2004.46 842.687C1987.68 897.269 1971.87 952.348 1960.47 1008.57C1948.15 1069.33 1941.11 1132.94 1935.37 1196.97C1933.55 1217.32 1931.85 1237.72 1930.16 1258.08C1926.54 1301.77 1922.92 1345.3 1918.06 1387.88C1903.79 1512.73 1878.74 1629.61 1810.94 1718.91C1669.38 1905.33 1444.53 2006.83 1249.64 1944.39C1155.99 1914.38 1096.27 1819.68 1040.84 1713.6C1030.95 1694.67 1021.19 1675.37 1011.4 1656.02C966.312 1566.84 920.548 1476.33 857.641 1413.74C820.705 1376.99 777.535 1351.19 732.223 1329.78C703.428 1316.17 673.797 1304.34 644.356 1292.58L644.345 1292.58L644.322 1292.57L644.3 1292.56L644.294 1292.56L644.29 1292.56L644.287 1292.56L644.284 1292.55C627.403 1285.82 610.586 1279.1 594.026 1272.09C503.154 1233.63 420.136 1186.32 378.211 1077.28C336.079 967.704 340.432 848.083 362.752 726.9C377.755 645.445 400.894 563.205 423.517 482.799C434.542 443.615 445.444 404.867 455.222 366.858C462.611 338.137 469.809 308.85 477.06 279.348C498.756 191.072 520.924 100.872 550.098 18.1324C589.027 -92.2763 640.459 -189.504 719.971 -251.289C797.964 -311.895 885.255 -311.857 975.588 -296.628C1005.43 -291.598 1035.62 -284.905 1065.93 -278.188L1065.93 -278.188L1065.93 -278.187L1065.93 -278.187L1065.93 -278.187C1081.49 -274.738 1097.08 -271.283 1112.66 -268.043ZM781.979 -117.377C850.103 -170.309 926.396 -170.322 1005.57 -156.976C1031.73 -152.567 1058.17 -146.705 1084.74 -140.817L1084.76 -140.812C1098.41 -137.788 1112.08 -134.757 1125.77 -131.912C1166.09 -123.53 1206.45 -116.774 1246.16 -116.618C1285.7 -116.464 1325.71 -122.394 1365.63 -129.823C1379.17 -132.342 1392.69 -135.033 1406.19 -137.719C1432.5 -142.953 1458.69 -148.164 1484.63 -152.033C1563.1 -163.741 1639.08 -163.137 1708.36 -113.743C1852.99 -10.6193 1950.32 195.09 1981.26 407.306C1995.86 507.428 1977.74 602.735 1950.93 697.741C1941.7 730.442 1931.45 763.089 1921.15 795.881C1916.49 810.73 1911.82 825.608 1907.23 840.535C1892.5 888.416 1878.62 936.775 1868.61 986.156C1857.78 1039.53 1851.6 1095.38 1846.57 1151.55C1844.97 1169.4 1843.48 1187.29 1842 1205.13L1842 1205.18L1841.99 1205.19C1838.81 1243.49 1835.65 1281.62 1831.38 1318.93C1818.88 1428.36 1796.95 1530.54 1737.69 1608.57C1613.73 1771.81 1416.84 1860.63 1246.28 1805.99C1164.52 1779.79 1112.31 1697.11 1063.7 1604.08C1055.05 1587.53 1046.51 1570.65 1037.94 1553.71L1037.92 1553.66C998.374 1475.45 958.129 1395.86 902.815 1340.83C870.312 1308.49 832.347 1285.82 792.564 1267.02C767.273 1255.06 741.22 1244.66 715.361 1234.34L715.333 1234.33L715.32 1234.33L715.316 1234.32L715.313 1234.32L715.309 1234.32C700.524 1228.42 685.802 1222.54 671.324 1216.42C591.628 1182.69 519.17 1141.32 482.586 1046.18C445.775 950.451 449.546 845.879 469.1 739.725C482.247 668.356 502.508 596.353 522.34 525.878L522.34 525.876L522.34 525.875L522.342 525.87L522.342 525.867C532.016 491.489 541.588 457.474 550.181 424.074C556.671 398.85 562.99 373.143 569.353 347.257L569.353 347.254C588.378 269.856 607.797 190.854 633.358 118.366C667.462 21.6498 712.47 -63.3693 781.979 -117.377ZM1246.16 -117.915C1206.53 -118.069 1166.23 -124.813 1125.92 -133.192C1112.26 -136.032 1098.6 -139.061 1084.95 -142.084L1084.95 -142.085L1084.95 -142.086L1084.94 -142.087L1084.94 -142.087L1084.94 -142.088C1058.36 -147.979 1031.87 -153.849 1005.7 -158.261C926.468 -171.617 849.889 -171.653 781.465 -118.488C711.712 -64.2914 666.595 20.9924 632.448 117.827C606.86 190.392 587.415 269.502 568.386 346.919L568.385 346.922L568.385 346.923C562.026 372.795 555.713 398.478 549.233 423.664C540.658 456.992 531.097 490.969 521.428 525.33L521.427 525.335L521.426 525.338C501.584 595.854 481.287 667.985 468.128 739.424C448.55 845.707 444.728 950.636 481.691 1046.76C518.475 1142.41 591.311 1183.92 671.013 1217.65C685.544 1223.8 700.298 1229.69 715.107 1235.6C740.945 1245.91 766.95 1256.29 792.221 1268.23C831.961 1287.01 869.818 1309.63 902.206 1341.86C957.372 1396.74 997.503 1476.1 1037.05 1554.31C1045.64 1571.28 1054.19 1588.21 1062.87 1604.81C1111.49 1697.85 1163.88 1780.92 1246.04 1807.24C1417 1862.01 1614.23 1772.99 1738.4 1609.48C1797.89 1531.14 1819.86 1428.62 1832.37 1319.12C1836.64 1281.78 1839.81 1243.6 1842.99 1205.28L1842.99 1205.28L1842.99 1205.27L1842.99 1205.27L1842.99 1205.26L1842.99 1205.26C1844.48 1187.41 1845.96 1169.53 1847.56 1151.7C1852.6 1095.54 1858.77 1039.77 1869.57 986.485C1879.57 937.183 1893.43 888.883 1908.16 841.015C1912.74 826.119 1917.4 811.263 1922.06 796.431L1922.07 796.399C1932.37 763.594 1942.63 730.91 1951.87 698.186C1978.7 603.114 1996.89 507.537 1982.24 407.065C1951.25 194.556 1853.79 -11.53 1708.84 -114.879C1639.28 -164.472 1563.04 -165.037 1484.51 -153.321C1458.56 -149.449 1432.34 -144.232 1406.02 -138.996L1406.02 -138.996L1406.01 -138.995L1406.01 -138.995L1406.01 -138.995L1406.01 -138.994L1405.99 -138.991C1392.51 -136.308 1379 -133.62 1365.48 -131.106C1325.58 -123.68 1285.63 -117.76 1246.16 -117.915ZM1032.32 -34.074C963.003 -45.757 896.226 -45.7421 836.601 0.580444C775.76 47.8475 736.362 122.258 706.505 206.917C684.127 270.37 667.127 339.523 650.471 407.278L650.467 407.298L650.458 407.333L650.457 407.336L650.456 407.339L650.456 407.342L650.455 407.344C644.889 429.984 639.362 452.468 633.685 474.53C626.16 503.775 617.779 533.556 609.308 563.654L609.308 563.657L609.307 563.659C591.945 625.351 574.208 688.375 562.699 750.847C545.581 843.768 542.282 935.29 574.501 1019.07C606.518 1102.32 669.933 1138.53 739.708 1168.05C752.396 1173.42 765.3 1178.57 778.26 1183.74L778.262 1183.75C800.902 1192.78 823.715 1201.89 845.857 1212.35C880.691 1228.81 913.936 1248.66 942.401 1276.98C990.838 1325.16 1026.08 1394.85 1060.71 1463.32L1060.71 1463.33C1068.22 1478.17 1075.69 1492.96 1083.27 1507.46C1125.83 1588.89 1171.53 1661.25 1243.09 1684.17C1392.39 1732 1564.75 1654.25 1673.26 1511.37C1725.13 1443.08 1744.33 1353.65 1755.28 1257.86C1759.01 1225.2 1761.78 1191.82 1764.57 1158.29C1765.87 1142.65 1767.17 1126.98 1768.57 1111.33C1772.98 1062.16 1778.39 1013.27 1787.87 966.537C1796.64 923.304 1808.79 880.966 1821.68 839.05C1825.7 825.981 1829.79 812.956 1833.87 799.957L1833.88 799.94C1842.89 771.239 1851.87 742.668 1859.94 714.048C1883.41 630.883 1899.28 547.467 1886.5 459.84C1859.41 274.082 1774.21 94.0248 1647.59 3.76306C1586.96 -39.4644 1520.46 -39.9958 1451.75 -29.7475C1429.05 -26.3601 1406.12 -21.7988 1383.08 -17.2167C1371.27 -14.8661 1359.42 -12.5101 1347.57 -10.3043C1312.62 -3.80103 1277.59 1.39105 1242.97 1.2558C1208.19 1.11993 1172.85 -4.79584 1137.55 -12.1335C1125.56 -14.6253 1113.58 -17.2803 1101.63 -19.9291L1101.63 -19.9293L1101.63 -19.9295L1101.63 -19.9297L1101.62 -19.9299L1101.62 -19.9301L1101.62 -19.9302C1078.37 -25.0844 1055.21 -30.2151 1032.32 -34.074ZM1137.71 -13.4132C1172.99 -6.07849 1208.27 -0.175842 1242.97 -0.0402832C1277.52 0.0947266 1312.49 -5.08649 1347.43 -11.5872C1359.26 -13.7891 1371.09 -16.143 1382.91 -18.4926C1405.95 -23.0771 1428.91 -27.6451 1451.64 -31.0351C1520.4 -41.2917 1587.16 -40.7997 1648.08 2.62744C1775.01 93.1141 1860.35 273.547 1887.48 459.599C1900.31 547.575 1884.37 631.262 1860.88 714.493C1852.8 743.141 1843.81 771.755 1834.79 800.473C1830.71 813.466 1826.62 826.481 1822.61 839.53C1809.72 881.432 1797.59 923.711 1788.83 966.866C1779.38 1013.51 1773.97 1062.33 1769.56 1111.48C1768.16 1127.1 1766.86 1142.76 1765.56 1158.39C1762.78 1191.94 1760 1225.36 1756.26 1258.05C1745.31 1353.92 1726.07 1443.68 1673.98 1512.28C1565.25 1655.44 1392.55 1733.38 1242.85 1685.43C1170.89 1662.38 1125.01 1589.63 1082.44 1508.18C1074.84 1493.64 1067.35 1478.83 1059.83 1463.96C1025.21 1395.5 990.081 1326.04 941.792 1278.01C913.442 1249.8 880.305 1230.01 845.515 1213.57C823.391 1203.11 800.626 1194.03 778.006 1185C765.04 1179.82 752.121 1174.67 739.397 1169.28C669.616 1139.76 605.823 1103.42 573.606 1019.65C541.236 935.474 544.584 843.597 561.727 750.546C573.249 688.003 591.021 624.85 608.395 563.115C616.86 533.035 625.23 503.292 632.737 474.12C638.409 452.075 643.935 429.596 649.502 406.95L649.503 406.944C666.164 339.17 683.19 269.909 705.596 206.378C735.494 121.6 775.002 46.9253 836.087 -0.53125C896.012 -47.0868 963.076 -47.0518 1032.45 -35.3593C1055.36 -31.4972 1078.55 -26.3586 1101.82 -21.2017L1101.83 -21.2006C1113.77 -18.5529 1125.74 -15.9003 1137.71 -13.4132ZM881.454 97.4462C934.1 56.551 993.064 56.535 1054.28 66.8519C1074.51 70.26 1094.95 74.791 1115.5 79.343L1115.51 79.3463L1115.51 79.3466L1115.52 79.347L1115.52 79.3474L1115.52 79.3477L1115.52 79.3481L1115.52 79.3484C1126.07 81.6859 1136.64 84.0289 1147.23 86.228C1178.41 92.7083 1209.62 97.9334 1240.34 98.0534C1270.93 98.1729 1301.87 93.587 1332.74 87.8436C1343.21 85.8954 1353.67 83.8146 1364.11 81.7386C1384.45 77.6922 1404.7 73.6644 1424.76 70.673C1485.44 61.6229 1544.16 62.0945 1597.7 100.258C1709.51 179.958 1784.75 338.95 1808.68 502.981C1819.96 580.346 1805.96 653.997 1785.23 727.439C1778.09 752.716 1770.17 777.95 1762.2 803.299L1762.2 803.303C1758.6 814.783 1754.98 826.287 1751.43 837.83C1740.05 874.848 1729.31 912.241 1721.56 950.426C1713.19 991.7 1708.41 1034.88 1704.52 1078.31C1703.28 1092.13 1702.13 1105.97 1700.98 1119.78C1698.52 1149.39 1696.07 1178.87 1692.78 1207.71C1683.11 1292.3 1666.15 1371.26 1620.36 1431.55C1524.52 1557.72 1372.31 1626.36 1240.46 1584.13C1177.29 1563.9 1136.93 1500.02 1099.34 1428.1C1092.65 1415.3 1086.04 1402.24 1079.41 1389.13C1048.83 1328.66 1017.7 1267.11 974.906 1224.55C949.759 1199.53 920.389 1182 889.62 1167.46C870.063 1158.22 849.914 1150.18 829.918 1142.2L829.917 1142.2L829.916 1142.2L829.915 1142.2L829.914 1142.2L829.912 1142.2L829.911 1142.19L829.91 1142.19C818.464 1137.63 807.068 1133.08 795.863 1128.34C734.235 1102.26 678.247 1070.29 649.98 996.803C621.532 922.839 624.442 842.034 639.561 759.981C649.725 704.814 665.389 649.162 680.723 594.682C688.206 568.099 695.609 541.796 702.257 515.964C707.275 496.463 712.161 476.591 717.081 456.581L717.084 456.567L717.085 456.565C731.796 396.731 746.809 335.667 766.572 279.634C792.94 204.876 827.731 139.178 881.454 97.4462ZM1240.35 96.7573C1209.71 96.6376 1178.55 91.4256 1147.38 84.9482C1136.82 82.7521 1126.25 80.4097 1115.69 78.0715L1115.69 78.0707C1095.14 73.5162 1074.65 68.9777 1054.41 65.5667C993.136 55.2402 933.886 55.2064 880.94 96.3345C826.974 138.256 792.072 204.219 765.662 279.095C745.873 335.203 730.833 396.373 716.118 456.224L716.117 456.231L716.116 456.233C711.199 476.233 706.318 496.086 701.308 515.553C694.679 541.312 687.287 567.577 679.81 594.14L679.81 594.143C664.465 648.664 648.765 704.443 638.588 759.68C623.446 841.863 620.485 923.024 649.085 997.381C677.552 1071.39 733.919 1103.49 795.552 1129.57C806.772 1134.32 818.162 1138.86 829.593 1143.42L829.598 1143.43L829.602 1143.43L829.61 1143.43L829.621 1143.44L829.623 1143.44L829.634 1143.44L829.655 1143.45C849.633 1151.42 869.737 1159.44 889.277 1168.68C920.003 1183.19 949.265 1200.67 974.298 1225.57C1016.94 1267.99 1047.96 1329.32 1078.54 1389.78C1085.18 1402.9 1091.8 1415.99 1098.51 1428.83C1136.11 1500.76 1176.65 1565.03 1240.22 1585.39C1372.47 1627.75 1525.03 1558.9 1621.07 1432.46C1667.1 1371.86 1684.09 1292.57 1693.77 1207.9C1697.07 1179.03 1699.52 1149.51 1701.98 1119.89L1701.98 1119.88L1701.98 1119.87C1703.13 1106.07 1704.28 1092.25 1705.51 1078.46C1709.41 1035.05 1714.18 991.939 1722.53 950.756C1730.26 912.649 1740.98 875.315 1752.36 838.31C1755.9 826.799 1759.51 815.318 1763.11 803.856L1763.12 803.823C1771.09 778.46 1779.02 753.187 1786.16 727.884C1806.91 654.376 1820.99 580.454 1809.66 502.74C1785.69 338.415 1710.31 179.047 1598.18 99.1226C1544.36 60.7592 1485.38 60.327 1424.64 69.3854C1404.57 72.3794 1384.29 76.4139 1363.93 80.4628L1363.91 80.4677C1353.48 82.541 1343.04 84.6179 1332.6 86.5607C1301.74 92.3015 1270.86 96.8765 1240.35 96.7573ZM1075.36 163.709C1021.91 154.703 970.448 154.72 924.5 190.406C877.608 226.826 847.237 284.164 824.217 349.42C806.963 398.332 793.856 451.634 781.011 503.869C776.715 521.343 772.447 538.697 768.064 555.727C762.259 578.279 755.796 601.24 749.264 624.444L749.262 624.448L749.26 624.456C735.872 672.015 722.197 720.591 713.323 768.748C700.125 840.372 697.586 910.891 722.416 975.437C747.084 1039.56 795.945 1067.46 849.754 1090.23C859.528 1094.36 869.47 1098.33 879.457 1102.31L879.459 1102.31L879.462 1102.31L879.465 1102.31L879.467 1102.32L879.47 1102.32L879.472 1102.32L879.475 1102.32L879.477 1102.32C896.94 1109.29 914.539 1116.31 931.619 1124.38C958.487 1137.07 984.137 1152.38 1006.1 1174.23C1043.47 1211.39 1070.66 1265.15 1097.37 1317.94L1097.4 1318C1103.18 1329.42 1108.93 1340.8 1114.76 1351.95C1147.59 1414.74 1182.81 1470.48 1237.95 1488.13C1353.04 1524.99 1485.92 1465.08 1569.58 1354.95C1609.56 1302.33 1624.35 1233.43 1632.8 1159.59C1635.68 1134.41 1637.81 1108.68 1639.96 1082.84L1639.96 1082.83L1639.96 1082.81L1639.97 1082.79L1639.97 1082.78L1639.97 1082.76L1639.98 1082.58V1082.58V1082.58V1082.58C1640.98 1070.6 1641.98 1058.6 1643.05 1046.62C1646.45 1008.71 1650.62 971.004 1657.93 934.966C1664.7 901.625 1674.07 868.977 1684.02 836.659C1687.11 826.594 1690.26 816.563 1693.41 806.553L1693.42 806.516C1700.37 784.385 1707.29 762.358 1713.52 740.29C1731.62 676.18 1743.84 611.9 1733.99 544.383C1713.11 401.202 1647.42 262.426 1549.81 192.863C1503.08 159.559 1451.83 159.144 1398.85 167.045C1381.34 169.656 1363.66 173.172 1345.9 176.704C1336.79 178.517 1327.65 180.333 1318.51 182.034C1291.55 187.048 1264.53 191.053 1237.82 190.948C1211 190.843 1183.74 186.281 1156.51 180.624C1147.26 178.702 1138.02 176.655 1128.81 174.612C1110.87 170.639 1093.02 166.684 1075.36 163.709ZM1156.67 179.344C1183.88 184.998 1211.08 189.548 1237.83 189.652C1264.46 189.756 1291.43 185.763 1318.37 180.751C1327.49 179.055 1336.61 177.241 1345.72 175.43L1345.72 175.428C1363.5 171.893 1381.21 168.371 1398.74 165.757C1451.77 157.849 1503.28 158.223 1550.3 191.727C1648.22 261.516 1714.05 400.667 1734.98 544.142C1744.88 612.008 1732.58 676.559 1714.46 740.736C1708.23 762.823 1701.3 784.884 1694.34 807.023L1694.34 807.032C1691.19 817.049 1688.04 827.082 1684.95 837.14C1675.01 869.444 1665.65 902.033 1658.9 935.295C1651.61 971.242 1647.44 1008.87 1644.04 1046.77C1642.96 1058.79 1641.96 1070.85 1640.96 1082.88L1640.96 1082.93C1638.81 1108.79 1636.67 1134.57 1633.79 1159.78C1625.34 1233.69 1610.5 1302.94 1570.3 1355.86C1486.42 1466.26 1353.2 1526.38 1237.71 1489.39C1182.17 1471.6 1146.76 1415.47 1113.94 1352.68C1108.07 1341.47 1102.29 1330.04 1096.5 1318.58C1069.79 1265.8 1042.72 1212.27 1005.49 1175.26C983.644 1153.53 958.101 1138.27 931.276 1125.6C914.217 1117.54 896.666 1110.53 879.224 1103.58L879.219 1103.57L879.218 1103.57L879.216 1103.57L879.215 1103.57L879.213 1103.57L879.212 1103.57L879.21 1103.57C869.215 1099.58 859.256 1095.61 849.444 1091.46C795.629 1068.69 746.389 1040.66 721.521 976.015C696.54 911.076 699.128 840.2 712.351 768.447C721.238 720.219 734.948 671.515 748.347 623.915L748.35 623.906L748.35 623.904L748.351 623.903L748.351 623.901L748.351 623.9L748.352 623.899L748.352 623.897L748.352 623.896C754.878 600.713 761.33 577.793 767.115 555.317C771.489 538.324 775.75 520.995 780.044 503.535L780.044 503.534C792.893 451.28 806.026 397.87 823.308 348.881C846.37 283.506 876.85 225.904 923.986 189.295C970.234 153.375 1021.99 153.408 1075.49 162.423C1093.17 165.401 1111.05 169.364 1129 173.341L1129 173.341L1129.01 173.342L1129.02 173.344L1129.02 173.345L1129.03 173.347L1129.05 173.352C1138.25 175.39 1147.46 177.431 1156.67 179.344ZM960.674 268.524C1000.99 237.214 1046.16 237.196 1093.08 245.1C1108.57 247.711 1124.23 251.18 1139.97 254.667L1139.98 254.667L1139.99 254.67L1139.99 254.67L1139.99 254.67C1148.08 256.463 1156.2 258.26 1164.32 259.947C1188.22 264.913 1212.15 268.919 1235.71 269.01C1259.16 269.102 1282.89 265.587 1306.55 261.185C1314.58 259.692 1322.6 258.097 1330.6 256.507L1330.61 256.506C1346.2 253.406 1361.71 250.32 1377.08 248.029C1423.59 241.095 1468.57 241.461 1509.58 270.681C1595.25 331.727 1652.9 453.515 1671.24 579.173C1679.88 638.415 1669.16 694.821 1653.27 751.089C1647.8 770.451 1641.73 789.778 1635.63 809.196L1635.62 809.219C1632.86 818.015 1630.09 826.83 1627.37 835.675C1618.64 864.043 1610.4 892.703 1604.47 921.973C1598.05 953.611 1594.38 986.71 1591.4 1019.99C1590.45 1030.58 1589.57 1041.19 1588.69 1051.77C1586.8 1074.46 1584.92 1097.04 1582.4 1119.14C1574.99 1183.95 1562 1244.41 1526.92 1290.58C1453.48 1387.22 1336.85 1439.8 1235.83 1407.46C1187.45 1391.97 1156.54 1343.07 1127.73 1287.96C1122.6 1278.15 1117.54 1268.15 1112.46 1258.11C1089.01 1211.77 1065.14 1164.57 1032.32 1131.94C1013.03 1112.76 990.504 1099.32 966.913 1088.18C951.92 1081.09 936.469 1074.93 921.139 1068.81L921.133 1068.81L921.118 1068.81C912.35 1065.31 903.622 1061.83 895.042 1058.2C847.804 1038.22 804.932 1013.73 783.288 957.481C761.499 900.851 763.725 838.974 775.31 776.113C783.1 733.848 795.103 691.219 806.856 649.477L806.856 649.474C812.592 629.103 818.268 608.944 823.366 589.141C827.215 574.191 830.961 558.957 834.734 543.619C846.009 497.77 857.514 450.991 872.66 408.063C892.867 350.792 919.523 300.48 960.674 268.524ZM1235.71 267.714C1212.24 267.623 1188.36 263.63 1164.47 258.667C1156.38 256.985 1148.28 255.19 1140.19 253.399L1140.19 253.398L1140.18 253.398L1140.18 253.398L1140.18 253.397L1140.18 253.397L1140.18 253.397L1140.17 253.396L1140.17 253.396L1140.17 253.396C1124.42 249.906 1108.72 246.428 1093.21 243.815C1046.23 235.901 1000.78 235.869 960.16 267.412C918.765 299.557 892 350.134 871.751 407.524C856.578 450.529 845.046 497.417 833.766 543.285C829.997 558.608 826.256 573.818 822.417 588.731C817.341 608.45 811.679 628.561 805.952 648.903L805.945 648.929L805.944 648.932L805.943 648.935C794.179 690.719 782.141 733.476 774.338 775.812C762.728 838.802 760.453 901.035 782.393 958.059C804.237 1014.83 847.488 1039.45 894.732 1059.43C903.352 1063.07 912.101 1066.56 920.88 1070.07C936.192 1076.18 951.596 1082.32 966.571 1089.39C990.118 1100.52 1012.54 1113.9 1031.71 1132.97C1064.38 1165.46 1088.14 1212.42 1111.59 1258.75C1116.68 1268.81 1121.75 1278.84 1126.9 1288.69C1155.72 1343.8 1186.81 1393.1 1235.59 1408.72C1337 1441.19 1453.99 1388.41 1527.63 1291.49C1562.94 1245.02 1575.97 1184.22 1583.39 1119.33C1585.92 1097.21 1587.8 1074.58 1589.68 1051.89L1589.68 1051.88C1590.56 1041.3 1591.44 1030.71 1592.39 1020.14C1595.38 986.876 1599.03 953.85 1605.43 922.302C1611.36 893.111 1619.57 864.51 1628.29 836.155C1631.01 827.338 1633.77 818.541 1636.53 809.759L1636.54 809.731C1642.65 790.295 1648.73 770.926 1654.21 751.535C1670.11 695.2 1680.92 638.524 1672.22 578.932C1653.84 452.979 1596.04 330.816 1510.06 269.546C1468.77 240.125 1423.53 239.799 1376.97 246.741C1361.58 249.035 1346.03 252.128 1330.43 255.23L1330.42 255.231C1322.43 256.82 1314.42 258.413 1306.41 259.903C1282.76 264.301 1259.09 267.806 1235.71 267.714ZM1110.79 326.492C1070.4 319.689 1031.54 319.708 996.848 346.641C961.436 374.133 938.496 417.42 921.102 466.706C908.065 503.649 898.162 543.905 888.455 583.365L888.454 583.367L888.453 583.373C885.206 596.574 881.98 609.686 878.667 622.555C874.276 639.606 869.389 656.961 864.45 674.496C854.333 710.422 844.002 747.105 837.296 783.479C827.324 837.575 825.411 890.81 844.159 939.525C862.779 987.908 899.662 1008.97 940.33 1026.17C947.716 1029.29 955.231 1032.29 962.78 1035.3L962.782 1035.3L962.784 1035.3L962.786 1035.3L962.789 1035.3L962.797 1035.31L962.799 1035.31C975.996 1040.57 989.3 1045.88 1002.21 1051.97C1022.52 1061.56 1041.92 1073.14 1058.53 1089.66C1086.8 1117.75 1107.36 1158.39 1127.54 1198.28C1131.92 1206.92 1136.27 1215.53 1140.69 1223.97C1165.5 1271.4 1192.09 1313.46 1233.72 1326.78C1320.66 1354.62 1421.05 1309.37 1484.25 1226.21C1514.43 1186.49 1525.62 1134.48 1532 1078.7C1534.17 1059.69 1535.78 1040.26 1537.41 1020.75L1537.41 1020.74L1537.41 1020.74L1537.41 1020.73L1537.41 1020.73L1537.41 1020.73L1537.41 1020.72L1537.41 1020.72L1537.41 1020.72L1537.41 1020.72C1538.17 1011.61 1538.93 1002.47 1539.74 993.357C1542.31 964.712 1545.47 936.218 1551 908.98C1556.11 883.781 1563.2 859.109 1570.71 834.691C1573.06 827.076 1575.44 819.488 1577.82 811.916C1583.08 795.197 1588.3 778.558 1593.01 761.888C1606.69 713.461 1615.92 664.931 1608.48 613.964C1592.7 505.827 1543.07 401.028 1469.34 348.5C1434.05 323.363 1395.35 323.045 1355.31 329.012C1342.08 330.985 1328.72 333.64 1315.3 336.309C1308.41 337.678 1301.51 339.051 1294.59 340.337C1274.22 344.125 1253.79 347.152 1233.6 347.073C1213.31 346.994 1192.7 343.545 1172.12 339.27C1165.13 337.819 1158.15 336.273 1151.19 334.731L1151.18 334.73L1151.18 334.729L1151.18 334.729L1151.17 334.728C1137.62 331.726 1124.13 328.739 1110.79 326.492ZM1172.28 337.991C1192.84 342.262 1213.39 345.698 1233.6 345.777C1253.72 345.855 1274.09 342.84 1294.45 339.054C1301.33 337.776 1308.2 336.409 1315.07 335.044L1315.09 335.039L1315.12 335.033C1328.56 332.362 1341.95 329.7 1355.2 327.725C1395.29 321.749 1434.26 322.027 1469.82 347.364C1543.87 400.116 1593.64 505.292 1609.46 613.723C1616.95 665.039 1607.65 713.84 1593.95 762.334C1589.24 779.024 1584 795.696 1578.74 812.424L1578.74 812.431C1576.36 819.998 1573.98 827.575 1571.64 835.171C1564.13 859.576 1557.06 884.189 1551.96 909.31C1546.45 936.457 1543.31 964.878 1540.74 993.507C1539.92 1002.6 1539.16 1011.72 1538.41 1020.82C1536.78 1040.36 1535.16 1059.84 1532.98 1078.89C1526.6 1134.74 1515.38 1187.1 1484.96 1227.12C1421.55 1310.56 1320.81 1356 1233.48 1328.04C1191.45 1314.59 1164.67 1272.13 1139.86 1224.69C1135.43 1216.22 1131.06 1207.58 1126.67 1198.92C1106.49 1159.04 1086.04 1118.64 1057.93 1090.69C1041.43 1074.28 1022.13 1062.76 1001.86 1053.19C988.975 1047.1 975.719 1041.82 962.541 1036.56L962.535 1036.56C954.976 1033.54 947.443 1030.54 940.02 1027.4C899.346 1010.2 862.084 989.006 843.264 940.104C824.365 890.995 826.327 837.404 836.324 783.178C843.042 746.733 853.409 709.922 863.537 673.955L863.538 673.953C868.471 656.437 873.347 639.121 877.718 622.145C881.022 609.312 884.242 596.222 887.487 583.034C897.198 543.553 907.128 503.188 920.193 466.167C937.628 416.762 960.679 373.211 996.334 345.529C1031.32 318.363 1070.47 318.394 1110.92 325.207C1124.28 327.457 1137.8 330.452 1151.37 333.457C1158.33 334.999 1165.31 336.543 1172.28 337.991ZM1035.55 430.228C1064.22 407.978 1096.34 407.958 1129.74 413.582C1140.77 415.439 1151.92 417.907 1163.13 420.388L1163.13 420.388L1163.13 420.389L1163.13 420.389L1163.13 420.389L1163.14 420.39L1163.14 420.39L1163.14 420.391L1163.14 420.391L1163.14 420.391L1163.17 420.397C1168.92 421.671 1174.69 422.948 1180.47 424.148C1197.49 427.683 1214.54 430.535 1231.33 430.601C1248.04 430.666 1264.94 428.163 1281.8 425.03C1287.52 423.966 1293.23 422.831 1298.93 421.699C1310.03 419.493 1321.08 417.297 1332.02 415.667C1365.13 410.733 1397.12 410.999 1426.28 431.767C1487.24 475.181 1528.28 561.803 1541.33 651.191C1547.48 693.303 1539.85 733.408 1528.54 773.445C1524.65 787.223 1520.32 800.973 1515.98 814.793L1515.98 814.804C1514.01 821.065 1512.03 827.341 1510.09 833.64C1503.88 853.831 1498.01 874.237 1493.78 895.079C1489.21 917.609 1486.6 941.176 1484.47 964.863C1483.8 972.404 1483.17 979.955 1482.54 987.489C1481.2 1003.63 1479.86 1019.7 1478.06 1035.42C1472.79 1081.54 1463.54 1124.52 1438.6 1157.33C1386.33 1226.08 1303.33 1263.47 1231.45 1240.47C1197.06 1229.46 1175.07 1194.71 1154.55 1155.49C1150.91 1148.52 1147.31 1141.41 1143.69 1134.27L1143.69 1134.26C1126.99 1101.28 1109.97 1067.66 1086.58 1044.41C1072.83 1030.75 1056.77 1021.17 1039.97 1013.24C1029.29 1008.2 1018.28 1003.81 1007.36 999.451L1007.33 999.439C1001.09 996.953 994.884 994.478 988.785 991.9C955.148 977.68 924.673 960.275 909.289 920.314C893.795 880.067 895.373 836.081 903.62 791.362C909.165 761.292 917.707 730.971 926.074 701.27L926.076 701.264C930.161 686.764 934.204 672.413 937.836 658.31C940.579 647.664 943.247 636.819 945.934 625.9C953.963 593.273 962.152 559.996 972.933 529.455C987.317 488.713 1006.28 452.944 1035.55 430.228ZM1231.33 429.305C1214.63 429.24 1197.63 426.4 1180.63 422.868C1174.86 421.672 1169.1 420.395 1163.34 419.12L1163.34 419.12L1163.34 419.12C1152.11 416.635 1140.92 414.158 1129.87 412.297C1096.41 406.663 1064.01 406.634 1035.04 429.116C1005.52 452.021 986.449 488.055 972.024 528.916C961.215 559.534 953 592.92 944.966 625.566L944.965 625.572C942.282 636.474 939.62 647.293 936.888 657.9C933.274 671.928 929.243 686.241 925.164 700.721L925.162 700.728C916.783 730.471 908.205 760.92 902.647 791.061C894.376 835.91 892.749 880.252 908.395 920.893C923.979 961.374 954.832 978.91 988.475 993.132C994.619 995.729 1000.85 998.213 1007.1 1000.71C1018 1005.05 1028.97 1009.42 1039.63 1014.46C1056.39 1022.37 1072.34 1031.89 1085.97 1045.44C1109.22 1068.54 1126.12 1101.93 1142.82 1134.9C1146.44 1142.07 1150.06 1149.21 1153.73 1156.22C1174.25 1195.45 1196.42 1230.59 1231.21 1241.72C1303.48 1264.85 1386.84 1227.26 1439.31 1158.24C1464.49 1125.13 1473.77 1081.8 1479.05 1035.61C1480.86 1019.86 1482.19 1003.75 1483.54 987.595C1484.16 980.068 1484.79 972.53 1485.47 965.013C1487.59 941.342 1490.19 917.848 1494.75 895.409C1498.96 874.645 1504.81 854.298 1511.02 834.12C1512.96 827.84 1514.93 821.574 1516.89 815.318C1521.24 801.484 1525.58 787.694 1529.48 773.891C1540.81 733.787 1548.51 693.412 1542.31 650.95C1529.22 561.267 1488.04 474.269 1426.76 430.631C1397.32 409.664 1365.07 409.437 1331.9 414.379C1320.94 416.012 1309.86 418.214 1298.75 420.423L1298.74 420.425C1293.05 421.555 1287.35 422.688 1281.66 423.747C1264.82 426.877 1247.97 429.37 1231.33 429.305ZM1145.86 487.649C1118.4 483.027 1092.01 483.048 1068.47 501.314C1044.42 519.968 1028.84 549.344 1017.02 582.82C1008.15 607.915 1001.42 635.256 994.82 662.071L994.82 662.072C992.61 671.047 990.415 679.964 988.16 688.717C985.171 700.316 981.845 712.117 978.485 724.038L978.484 724.04C971.605 748.448 964.585 773.357 960.026 798.065C953.248 834.808 951.955 870.93 964.682 903.974C977.313 936.773 1002.34 951.067 1030 962.754C1035.01 964.873 1040.12 966.908 1045.25 968.953L1045.26 968.958L1045.27 968.96C1054.25 972.539 1063.3 976.149 1072.09 980.293C1085.91 986.815 1099.12 994.69 1110.44 1005.93C1129.68 1025.05 1143.69 1052.71 1157.42 1079.81L1157.42 1079.82L1157.42 1079.82C1160.39 1085.69 1163.35 1091.53 1166.35 1097.26C1183.22 1129.5 1201.28 1158.02 1229.53 1167.05C1288.6 1185.95 1356.82 1155.23 1399.77 1098.75C1420.26 1071.81 1427.86 1036.52 1432.2 998.62C1433.68 985.697 1434.78 972.496 1435.88 959.228L1435.88 959.174C1436.4 953 1436.91 946.811 1437.47 940.628C1439.22 921.158 1441.36 901.781 1445.12 883.255C1448.61 866.118 1453.43 849.34 1458.54 832.744C1460.14 827.565 1461.76 822.406 1463.38 817.259C1466.95 805.898 1470.5 794.597 1473.71 783.272C1483 750.371 1489.27 717.432 1484.22 682.851C1473.49 609.407 1439.76 538.244 1389.66 502.582C1365.71 485.53 1339.43 485.308 1312.21 489.362C1303.22 490.701 1294.15 492.503 1285.03 494.314L1285.03 494.315L1285.02 494.315L1285.02 494.316L1285.02 494.316L1285.02 494.316L1285.02 494.317L1285.01 494.317L1285.01 494.317L1285.01 494.318L1285.01 494.318L1285.01 494.318L1285 494.319C1280.32 495.25 1275.62 496.183 1270.92 497.057C1257.06 499.632 1243.15 501.691 1229.4 501.637C1215.6 501.583 1201.57 499.238 1187.57 496.332C1182.82 495.347 1178.08 494.298 1173.35 493.251L1173.34 493.248L1173.32 493.244L1173.31 493.243L1173.31 493.242L1173.31 493.242L1173.3 493.241L1173.3 493.24L1173.3 493.239L1173.29 493.239L1173.29 493.238L1173.28 493.237L1173.28 493.236L1173.28 493.236L1173.27 493.235C1164.07 491.198 1154.92 489.172 1145.86 487.649ZM1187.73 495.052C1201.71 497.955 1215.68 500.288 1229.41 500.341C1243.08 500.395 1256.93 498.347 1270.77 495.774C1275.46 494.904 1280.15 493.973 1284.83 493.043L1284.83 493.041C1293.97 491.226 1303.08 489.417 1312.09 488.074C1339.37 484.012 1365.91 484.195 1390.15 501.446C1440.56 537.333 1474.43 608.871 1485.2 682.61C1490.3 717.541 1483.96 750.75 1474.64 783.718C1471.44 795.055 1467.88 806.383 1464.3 817.745L1464.3 817.746L1464.3 817.748L1464.3 817.749L1464.3 817.751L1464.3 817.752L1464.3 817.754L1464.3 817.755L1464.3 817.757L1464.3 817.758L1464.3 817.76L1464.3 817.761L1464.3 817.774C1462.68 822.916 1461.06 828.065 1459.47 833.224C1454.36 849.808 1449.56 866.526 1446.09 883.585C1442.35 902.02 1440.21 921.324 1438.46 940.778C1437.91 946.954 1437.39 953.149 1436.88 959.335L1436.88 959.338L1436.88 959.341L1436.87 959.344L1436.87 959.346L1436.87 959.349L1436.87 959.351L1436.87 959.354L1436.87 959.356L1436.87 959.359L1436.87 959.361L1436.87 959.364L1436.87 959.367C1435.77 972.638 1434.67 985.872 1433.19 998.81C1428.84 1036.78 1421.2 1072.42 1400.48 1099.66C1357.32 1156.42 1288.75 1187.33 1229.29 1168.31C1200.64 1159.15 1182.4 1130.23 1165.52 1097.99C1162.5 1092.22 1159.53 1086.35 1156.55 1080.46C1142.82 1053.36 1128.93 1025.93 1109.83 1006.96C1098.63 995.833 1085.52 988.012 1071.74 981.511C1062.98 977.375 1053.97 973.785 1045.01 970.213L1044.99 970.206C1039.85 968.159 1034.73 966.119 1029.69 963.986C1002.02 952.297 976.619 937.871 963.787 904.553C950.909 871.115 952.251 834.637 959.054 797.764C963.625 772.985 970.681 747.948 977.572 723.498L977.572 723.496C980.926 711.594 984.241 699.832 987.211 688.306C989.457 679.592 991.645 670.702 993.851 661.743L993.852 661.738C1000.46 634.903 1007.22 607.453 1016.11 582.281C1027.97 548.685 1043.67 519.045 1067.95 500.202C1091.8 481.703 1118.47 481.732 1145.99 486.363C1155.08 487.893 1164.28 489.93 1173.51 491.972C1178.25 493.02 1182.99 494.069 1187.73 495.052ZM1094.51 557.559C1114.01 542.444 1135.86 542.422 1158.62 546.251C1166.13 547.516 1173.73 549.196 1181.37 550.886C1185.3 551.755 1189.24 552.627 1193.19 553.445C1204.79 555.853 1216.43 557.798 1227.88 557.843C1239.28 557.887 1250.81 556.18 1262.31 554.047C1266.2 553.323 1270.09 552.551 1273.97 551.781L1273.97 551.781L1273.97 551.78L1273.98 551.779L1273.98 551.778L1273.98 551.778L1273.99 551.777C1281.55 550.275 1289.08 548.781 1296.53 547.671C1319.09 544.312 1340.86 544.5 1360.69 558.611C1402.2 588.141 1430.15 647.072 1439.03 707.9C1443.22 736.523 1438.03 763.792 1430.32 791.047C1427.67 800.429 1424.72 809.79 1421.76 819.202C1420.42 823.467 1419.07 827.743 1417.75 832.035C1413.51 845.788 1409.51 859.694 1406.63 873.901C1403.51 889.259 1401.73 905.32 1400.28 921.454C1399.82 926.548 1399.39 931.647 1398.97 936.734L1398.97 936.774L1398.96 936.869V936.871C1398.04 947.862 1397.13 958.796 1395.91 969.501C1392.31 1000.9 1386.02 1030.11 1369.05 1052.41C1333.46 1099.18 1276.94 1124.61 1228 1108.97C1204.62 1101.49 1189.67 1077.89 1175.68 1051.18C1173.2 1046.44 1170.74 1041.6 1168.28 1036.74C1156.9 1014.28 1145.28 991.343 1129.31 975.489C1119.92 966.162 1108.96 959.633 1097.5 954.227C1090.21 950.792 1082.7 947.799 1075.25 944.832C1071 943.137 1066.76 941.45 1062.6 939.693C1039.68 930.01 1018.96 918.178 1008.51 891.047C997.971 863.701 999.039 833.802 1004.66 803.369C1008.43 782.903 1014.25 762.276 1019.95 742.056L1019.95 742.053C1022.74 732.174 1025.5 722.393 1027.98 712.775C1029.85 705.521 1031.67 698.134 1033.5 690.698L1033.5 690.692C1038.97 668.475 1044.55 645.83 1051.89 625.044C1061.69 597.316 1074.6 572.999 1094.51 557.559ZM1227.88 556.546C1216.51 556.502 1204.94 554.57 1193.35 552.166C1189.42 551.351 1185.49 550.482 1181.57 549.614L1181.56 549.613C1173.91 547.921 1166.28 546.233 1158.74 544.966C1135.93 541.127 1113.79 541.099 1094 556.447C1073.84 572.076 1060.82 596.658 1050.98 624.504C1043.61 645.365 1038.01 668.116 1032.53 690.35L1032.53 690.351L1032.53 690.352L1032.53 690.353L1032.53 690.354L1032.53 690.355L1032.53 690.356L1032.53 690.357L1032.53 690.366C1030.7 697.786 1028.89 705.149 1027.03 712.365C1024.57 721.908 1021.82 731.651 1019.04 741.51C1013.33 761.773 1007.47 782.53 1003.68 803.067C998.042 833.631 996.925 863.886 1007.61 891.626C1018.27 919.277 1039.36 931.24 1062.29 940.926C1066.49 942.697 1070.74 944.39 1075 946.088L1075 946.089L1075 946.09L1075.01 946.091L1075.01 946.091L1075.01 946.092L1075.01 946.093L1075.01 946.094L1075.01 946.094L1075.01 946.095L1075.03 946.101C1082.45 949.055 1089.9 952.024 1097.16 955.445C1108.57 960.831 1119.43 967.306 1128.71 976.517C1144.52 992.224 1156.03 1014.93 1167.41 1037.38L1167.41 1037.39L1167.42 1037.4L1167.42 1037.4L1167.42 1037.41L1167.43 1037.42L1167.43 1037.43C1169.9 1042.29 1172.36 1047.14 1174.85 1051.91C1188.84 1078.63 1203.98 1102.62 1227.76 1110.23C1277.09 1126 1333.96 1100.36 1369.76 1053.32C1386.96 1030.72 1393.29 1001.16 1396.9 969.691C1398.13 958.96 1399.04 947.982 1399.96 936.975L1399.96 936.962C1400.38 931.841 1400.81 926.714 1401.27 921.604C1402.72 905.486 1404.49 889.498 1407.59 874.231C1410.46 860.103 1414.45 846.255 1418.68 832.516C1420 828.243 1421.34 823.978 1422.68 819.718C1425.64 810.295 1428.6 800.897 1431.26 791.493C1438.99 764.172 1444.25 736.632 1440.02 707.659C1431.08 646.536 1402.99 587.229 1361.17 557.475C1341.06 543.164 1319.03 543.016 1296.42 546.383C1288.95 547.496 1281.39 548.996 1273.81 550.501L1273.8 550.504L1273.78 550.506C1269.91 551.275 1266.04 552.044 1262.16 552.764C1250.69 554.895 1239.21 556.591 1227.88 556.546ZM1170.31 599.969C1151.86 596.868 1134.17 596.89 1118.39 609.117C1102.27 621.61 1091.81 641.291 1083.87 663.748C1077.91 680.584 1073.39 698.922 1068.96 716.922L1068.96 716.926C1067.47 722.955 1065.99 728.945 1064.48 734.829C1062.46 742.629 1060.23 750.559 1057.97 758.566L1057.97 758.568L1057.97 758.57L1057.97 758.572L1057.96 758.573L1057.96 758.575L1057.96 758.577L1057.96 758.579L1057.96 758.581L1057.96 758.582L1057.96 758.587C1053.34 774.962 1048.63 791.659 1045.57 808.23C1041.02 832.88 1040.15 857.074 1048.68 879.196C1057.14 901.132 1073.9 910.708 1092.49 918.555C1095.86 919.976 1099.3 921.343 1102.75 922.717L1102.75 922.718C1108.79 925.122 1114.88 927.549 1120.79 930.334C1130.09 934.716 1138.99 940.012 1146.62 947.58C1159.58 960.442 1169.01 979.048 1178.24 997.248C1180.24 1001.19 1182.22 1005.11 1184.24 1008.95C1195.58 1030.59 1207.69 1049.68 1226.61 1055.72C1266.25 1068.39 1312.05 1047.8 1340.89 1009.92C1354.63 991.882 1359.73 968.241 1362.64 942.808C1363.64 934.138 1364.38 925.285 1365.12 916.382L1365.12 916.373C1365.46 912.214 1365.81 908.044 1366.19 903.877C1367.36 890.802 1368.81 877.779 1371.34 865.326C1373.68 853.806 1376.93 842.531 1380.36 831.386C1381.44 827.905 1382.53 824.44 1383.62 820.983L1383.62 820.974C1386.02 813.351 1388.4 805.772 1390.55 798.175C1396.8 776.095 1401 754.024 1397.61 730.862C1390.41 681.599 1367.76 633.88 1334.14 609.971C1318.08 598.555 1300.45 598.399 1282.17 601.12C1276.12 602.019 1270.03 603.229 1263.9 604.445L1263.89 604.447C1260.74 605.072 1257.58 605.699 1254.41 606.286C1245.1 608.016 1235.74 609.4 1226.49 609.364C1217.19 609.327 1207.75 607.75 1198.34 605.799C1195.14 605.135 1191.94 604.428 1188.75 603.724L1188.75 603.723L1188.75 603.723L1188.74 603.722L1188.74 603.721L1188.73 603.72L1188.73 603.72L1188.73 603.719L1188.72 603.718L1188.72 603.717L1188.72 603.717L1188.71 603.716L1188.71 603.715C1182.53 602.349 1176.39 600.991 1170.31 599.969ZM1198.5 604.519C1207.89 606.468 1217.27 608.032 1226.49 608.068C1235.67 608.103 1244.97 606.73 1254.27 605.003C1257.42 604.42 1260.57 603.795 1263.71 603.171L1263.71 603.171C1269.86 601.951 1275.99 600.735 1282.05 599.833C1300.4 597.104 1318.28 597.22 1334.62 608.835C1368.56 632.968 1391.35 681.062 1398.6 730.621C1402.03 754.132 1397.76 776.475 1391.49 798.621C1389.34 806.24 1386.94 813.855 1384.54 821.488L1384.54 821.49L1384.54 821.492L1384.54 821.494L1384.53 821.496L1384.53 821.498L1384.53 821.499C1383.45 824.951 1382.36 828.406 1381.29 831.867C1377.86 842.999 1374.63 854.215 1372.3 865.656C1369.79 878.019 1368.35 890.968 1367.18 904.027C1366.81 908.17 1366.46 912.327 1366.11 916.48C1365.37 925.4 1364.63 934.3 1363.63 942.998C1360.71 968.504 1355.57 992.49 1341.6 1010.83C1312.55 1048.98 1266.4 1069.77 1226.37 1056.98C1207.05 1050.81 1194.75 1031.33 1183.41 1009.68C1181.38 1005.8 1179.37 1001.85 1177.37 997.894C1168.14 979.7 1158.82 961.324 1146.01 948.609C1138.5 941.156 1129.71 935.914 1120.45 931.552C1114.56 928.776 1108.51 926.369 1102.49 923.972L1102.47 923.963L1102.47 923.962C1099.02 922.589 1095.58 921.22 1092.18 919.787C1073.59 911.938 1056.45 902.231 1047.79 879.776C1039.11 857.259 1040.02 832.708 1044.6 807.929C1047.67 791.279 1052.42 774.447 1057.05 758.023L1057.06 758.016L1057.06 758.01L1057.06 758.002L1057.07 757.962C1059.32 749.995 1061.54 742.124 1063.53 734.418C1065.03 728.593 1066.49 722.648 1067.97 716.656L1067.97 716.652L1067.97 716.648L1067.97 716.644L1067.98 716.64L1067.98 716.636L1067.98 716.632L1067.98 716.62L1067.99 716.592C1072.43 698.571 1076.98 680.122 1082.96 663.208C1090.94 640.632 1101.51 620.687 1117.88 608.004C1133.95 595.545 1151.93 595.573 1170.44 598.684C1176.55 599.712 1182.74 601.081 1188.95 602.452C1192.13 603.156 1195.32 603.86 1198.5 604.519ZM1139.37 654.425C1151.88 644.737 1165.92 644.714 1180.58 647.177C1185.42 647.99 1190.31 649.069 1195.23 650.155L1195.24 650.158C1197.77 650.717 1200.32 651.279 1202.86 651.807C1210.35 653.357 1217.86 654.611 1225.26 654.64C1232.62 654.669 1240.07 653.568 1247.48 652.194C1250 651.727 1252.51 651.229 1255.02 650.732L1255.02 650.731L1255.02 650.731L1255.03 650.73L1255.03 650.729L1255.04 650.729C1259.9 649.763 1264.74 648.804 1269.54 648.091C1284.07 645.931 1298.06 646.058 1310.8 655.106C1337.5 674.074 1355.49 711.94 1361.21 751.041C1363.9 769.403 1360.57 786.906 1355.61 804.438C1353.9 810.473 1352 816.492 1350.09 822.549C1349.23 825.295 1348.36 828.049 1347.5 830.815C1344.77 839.67 1342.19 848.631 1340.32 857.79C1338.31 867.692 1337.16 878.043 1336.23 888.431C1335.93 891.744 1335.65 895.057 1335.38 898.362C1334.79 905.435 1334.2 912.464 1333.41 919.35C1331.09 939.545 1327.04 958.288 1316.14 972.587C1293.24 1002.64 1256.86 1018.98 1225.38 1008.93C1210.38 1004.14 1200.77 989.023 1191.75 971.832C1190.15 968.787 1188.58 965.675 1186.99 962.547C1179.65 948.089 1172.14 933.286 1161.82 923.055C1155.74 917.032 1148.66 912.819 1141.26 909.336C1136.56 907.124 1131.71 905.193 1126.9 903.282L1126.9 903.28C1124.16 902.189 1121.43 901.105 1118.76 899.979C1103.98 893.746 1090.69 886.153 1083.99 868.782C1077.22 851.25 1077.9 832.069 1081.52 812.503C1083.95 799.342 1087.7 786.086 1091.37 773.078C1093.17 766.716 1094.95 760.413 1096.55 754.209C1097.76 749.532 1098.93 744.771 1100.11 739.981L1100.11 739.975C1103.64 725.68 1107.23 711.125 1111.96 697.762C1118.27 679.935 1126.57 664.33 1139.37 654.425ZM1225.26 653.344C1217.94 653.315 1210.49 652.074 1203.02 650.527C1200.5 650.004 1197.96 649.445 1195.43 648.886L1195.42 648.884L1195.42 648.883C1190.49 647.794 1185.57 646.707 1180.71 645.891C1165.99 643.419 1151.67 643.392 1138.85 653.312C1125.82 663.406 1117.4 679.276 1111.05 697.221C1106.29 710.665 1102.68 725.33 1099.14 739.646C1097.97 744.422 1096.8 749.159 1095.6 753.798C1094.02 759.921 1092.25 766.177 1090.46 772.513L1090.46 772.535C1086.77 785.585 1082.99 798.969 1080.55 812.201C1076.9 831.897 1076.18 851.436 1083.09 869.362C1090 887.253 1103.66 894.976 1118.45 901.211C1121.16 902.352 1123.89 903.441 1126.64 904.533L1126.65 904.538C1131.44 906.44 1136.24 908.351 1140.92 910.554C1148.27 914.017 1155.25 918.176 1161.21 924.085C1171.38 934.169 1178.78 948.742 1186.12 963.193L1186.12 963.196C1187.71 966.339 1189.31 969.477 1190.92 972.561C1199.94 989.759 1209.74 1005.27 1225.14 1010.19C1257.01 1020.36 1293.74 1003.83 1316.86 973.498C1327.98 958.897 1332.07 939.808 1334.4 919.541C1335.19 912.629 1335.78 905.555 1336.37 898.468C1336.65 895.17 1336.92 891.87 1337.22 888.581C1338.15 878.209 1339.29 867.931 1341.29 858.12C1343.14 849.041 1345.7 840.138 1348.43 831.297C1348.97 829.555 1349.51 827.815 1350.06 826.077C1350.34 825.171 1350.63 824.266 1350.91 823.362L1350.96 823.217L1351.01 823.065L1351.01 823.059L1351.01 823.053L1351.01 823.047L1351.02 823.041L1351.02 823.036L1351.02 823.03L1351.02 823.024L1351.02 823.018L1351.02 823.012L1351.03 823.006L1351.03 823L1351.03 822.995L1351.03 822.989L1351.03 822.983L1351.04 822.977C1352.94 816.939 1354.84 810.913 1356.54 804.885C1361.53 787.287 1364.93 769.511 1362.2 750.8C1356.43 711.403 1338.29 673.162 1311.28 653.97C1298.26 644.723 1284.01 644.635 1269.43 646.804C1264.61 647.52 1259.73 648.487 1254.84 649.455L1254.84 649.456C1252.34 649.952 1249.83 650.448 1247.34 650.911C1239.94 652.283 1232.55 653.372 1225.26 653.344ZM1190.85 694.385C1179.98 692.561 1169.6 692.584 1160.35 699.734C1150.88 707.05 1144.73 718.58 1140.06 731.775C1136.55 741.67 1133.89 752.444 1131.27 763.036C1130.39 766.588 1129.52 770.119 1128.62 773.59C1127.43 778.198 1126.11 782.873 1124.77 787.59L1124.77 787.595C1122.05 797.228 1119.27 807.033 1117.47 816.776C1114.79 831.259 1114.29 845.427 1119.29 858.368C1124.24 871.174 1134.05 876.784 1145.02 881.403C1147.01 882.236 1149.03 883.04 1151.06 883.848C1154.63 885.265 1158.24 886.698 1161.73 888.339C1167.23 890.923 1172.5 894.052 1177.02 898.53C1184.7 906.131 1190.29 917.131 1195.74 927.846C1196.92 930.162 1198.09 932.464 1199.27 934.716C1205.96 947.455 1213.07 958.609 1224.15 962.141C1247.47 969.572 1274.42 957.491 1291.4 935.252C1299.46 924.695 1302.46 910.85 1304.18 895.893C1304.76 890.794 1305.2 885.59 1305.63 880.35C1305.84 877.9 1306.04 875.443 1306.27 872.985C1306.96 865.285 1307.81 857.604 1309.31 850.254C1310.7 843.457 1312.62 836.808 1314.64 830.245C1315.26 828.252 1315.89 826.271 1316.51 824.294L1316.53 824.23L1316.56 824.146L1316.57 824.114L1316.57 824.104L1316.57 824.094L1316.58 824.084L1316.58 824.074L1316.59 824.031C1318 819.572 1319.4 815.143 1320.66 810.702C1324.34 797.718 1326.8 784.782 1324.81 771.22C1320.57 742.283 1307.24 714.27 1287.46 700.242C1278.04 693.562 1267.69 693.462 1256.91 695.062C1253.35 695.591 1249.76 696.302 1246.14 697.018L1246.14 697.019L1246.13 697.02L1246.13 697.02L1246.13 697.021L1246.12 697.022L1246.12 697.022C1244.27 697.389 1242.41 697.757 1240.54 698.102C1235.04 699.121 1229.51 699.938 1224.03 699.917C1218.53 699.895 1212.95 698.964 1207.39 697.815C1205.49 697.423 1203.61 697.007 1201.72 696.592C1198.07 695.786 1194.45 694.987 1190.85 694.385ZM1207.55 696.535C1213.09 697.681 1218.61 698.599 1224.03 698.62C1229.44 698.641 1234.91 697.835 1240.4 696.819C1242.24 696.479 1244.08 696.115 1245.92 695.751L1245.93 695.749L1245.94 695.746L1245.95 695.744L1245.96 695.742L1245.97 695.742L1245.97 695.741L1245.97 695.741L1245.97 695.74L1245.98 695.74L1245.98 695.74L1245.98 695.739L1245.98 695.739L1245.99 695.739L1245.99 695.738L1245.99 695.738L1245.99 695.738L1246 695.737L1246 695.737L1246 695.736L1246 695.736C1249.62 695.02 1253.23 694.304 1256.8 693.775C1267.63 692.167 1278.24 692.227 1287.94 699.105C1308.03 713.356 1321.51 741.744 1325.8 770.979C1327.84 784.891 1325.3 798.099 1321.6 811.149C1320.32 815.641 1318.9 820.133 1317.48 824.631C1316.84 826.661 1316.2 828.693 1315.57 830.727C1313.55 837.277 1311.65 843.867 1310.28 850.585C1308.8 857.844 1307.95 865.451 1307.26 873.135C1307.04 875.569 1306.84 878.014 1306.63 880.457C1306.19 885.711 1305.75 890.959 1305.17 896.084C1303.44 911.113 1300.4 925.304 1292.11 936.164C1274.92 958.677 1247.62 970.955 1223.91 963.4C1212.43 959.74 1205.14 948.191 1198.44 935.446C1197.24 933.154 1196.05 930.825 1194.87 928.493C1189.42 917.785 1183.95 907.014 1176.42 899.56C1172.01 895.196 1166.84 892.121 1161.39 889.557C1157.92 887.926 1154.36 886.512 1150.81 885.104L1150.8 885.098L1150.78 885.093C1148.75 884.286 1146.72 883.48 1144.72 882.635C1133.74 878.015 1123.55 872.274 1118.4 858.948C1113.24 845.613 1113.79 831.087 1116.5 816.473C1118.31 806.66 1121.12 796.726 1123.86 787.052L1123.86 787.047L1123.86 787.045C1125.19 782.347 1126.5 777.711 1127.67 773.178C1128.56 769.745 1129.43 766.238 1130.3 762.701C1132.92 752.089 1135.61 741.207 1139.15 731.234C1143.87 717.92 1150.13 706.125 1159.83 698.621C1169.38 691.24 1180.05 691.266 1190.98 693.099C1194.59 693.704 1198.25 694.511 1201.91 695.319L1201.92 695.32C1202.63 695.477 1203.35 695.635 1204.06 695.79C1205.22 696.045 1206.39 696.295 1207.55 696.535ZM1172.65 723.562C1179.59 718.206 1187.39 718.182 1195.59 719.555C1198.3 720.008 1201.03 720.609 1203.78 721.215L1203.79 721.218L1203.81 721.22L1203.82 721.223L1203.9 721.241L1203.95 721.252L1203.98 721.26C1204.68 721.413 1205.38 721.566 1206.08 721.718C1206.74 721.86 1207.4 722.001 1208.06 722.137C1212.26 723.003 1216.48 723.706 1220.64 723.722C1224.78 723.738 1228.96 723.121 1233.11 722.354C1233.56 722.271 1234.01 722.186 1234.46 722.1C1234.76 722.042 1235.06 721.984 1235.36 721.925L1235.68 721.863L1236.42 721.718L1237.34 721.537L1237.35 721.535L1237.35 721.534L1237.36 721.533L1237.36 721.533L1237.37 721.532L1237.37 721.531C1240.09 720.994 1242.78 720.462 1245.46 720.066C1253.59 718.862 1261.36 718.942 1268.43 723.947C1283.32 734.483 1293.36 755.531 1296.56 777.285C1298.05 787.453 1296.2 797.16 1293.43 806.929C1292.47 810.291 1291.41 813.642 1290.34 817.019L1290.34 817.024C1289.86 818.556 1289.37 820.094 1288.89 821.64C1287.36 826.584 1285.91 831.599 1284.86 836.727C1283.73 842.273 1283.08 848.065 1282.56 853.866C1282.51 854.436 1282.46 855.006 1282.41 855.576C1282.34 856.387 1282.27 857.198 1282.2 858.008L1282.08 859.417C1281.75 863.361 1281.43 867.274 1280.98 871.111C1279.69 882.364 1277.43 892.747 1271.38 900.659C1258.59 917.371 1238.3 926.445 1220.76 920.865C1212.44 918.22 1207.1 909.869 1202.05 900.278C1201.17 898.597 1200.29 896.876 1199.41 895.144L1199.41 895.141L1199.41 895.138L1199.41 895.135L1199.41 895.132L1199.4 895.129L1199.4 895.115C1195.29 887.045 1191.06 878.734 1185.24 872.992C1181.82 869.606 1177.82 867.244 1173.67 865.296C1171.04 864.059 1168.31 862.977 1165.61 861.909L1165.61 861.908L1165.61 861.908L1165.61 861.907L1165.61 861.906L1165.61 861.906L1165.6 861.905C1164.07 861.298 1162.55 860.695 1161.07 860.071C1152.79 856.593 1145.43 852.384 1141.72 842.805C1137.97 833.11 1138.34 822.485 1140.36 811.596C1141.72 804.272 1143.8 796.909 1145.86 789.665L1145.86 789.66L1145.86 789.659L1145.86 789.658L1145.86 789.656L1145.86 789.655L1145.86 789.653L1145.86 789.652L1145.86 789.65L1145.86 789.649C1146.87 786.094 1147.87 782.569 1148.77 779.09C1149.45 776.477 1150.1 773.821 1150.76 771.151L1150.77 771.133L1150.77 771.132C1152.74 763.159 1154.75 755.06 1157.39 747.619C1160.91 737.698 1165.54 729.048 1172.65 723.562ZM1220.64 722.426C1216.56 722.41 1212.4 721.72 1208.22 720.857C1206.82 720.569 1205.42 720.26 1204.02 719.952L1204.01 719.95L1203.98 719.943L1203.98 719.943L1203.97 719.942L1203.97 719.942L1203.96 719.941L1203.96 719.94L1203.96 719.939L1203.95 719.939L1203.95 719.938L1203.94 719.937L1203.94 719.937L1203.94 719.936L1203.93 719.935L1203.93 719.934L1203.92 719.934L1203.92 719.933C1201.17 719.328 1198.43 718.722 1195.72 718.269C1187.46 716.888 1179.38 716.862 1172.14 722.448C1164.78 728.122 1160.05 737.036 1156.48 747.077C1153.81 754.596 1151.78 762.804 1149.8 770.797C1149.14 773.459 1148.49 776.097 1147.82 778.678C1146.94 782.082 1145.95 785.569 1144.95 789.104C1142.88 796.396 1140.76 803.893 1139.38 811.293C1137.34 822.313 1136.92 833.296 1140.83 843.387C1144.74 853.485 1152.48 857.824 1160.76 861.303C1162.28 861.944 1163.82 862.554 1165.36 863.165L1165.36 863.166L1165.37 863.168L1165.37 863.169L1165.37 863.171L1165.38 863.172L1165.38 863.173L1165.38 863.175L1165.39 863.176L1165.39 863.178L1165.39 863.179L1165.4 863.181L1165.4 863.182L1165.4 863.184L1165.41 863.185L1165.41 863.187C1168.07 864.239 1170.73 865.294 1173.33 866.514C1177.44 868.442 1181.33 870.751 1184.64 874.023C1190.3 879.618 1194.42 887.7 1198.53 895.763C1199.42 897.521 1200.32 899.278 1201.23 901.009C1206.28 910.607 1211.81 919.352 1220.52 922.123C1238.45 927.828 1259.1 918.558 1272.09 901.572C1278.37 893.357 1280.67 882.628 1281.97 871.302C1282.42 867.439 1282.75 863.482 1283.08 859.524L1283.09 859.465C1283.24 857.646 1283.39 855.827 1283.55 854.016C1284.08 848.232 1284.71 842.513 1285.83 837.058C1286.86 832.009 1288.29 827.054 1289.82 822.123C1290.29 820.594 1290.78 819.066 1291.26 817.537C1292.33 814.149 1293.4 810.762 1294.36 807.377C1297.16 797.542 1299.08 787.562 1297.54 777.042C1294.3 754.991 1284.11 733.569 1268.91 722.81C1261.56 717.607 1253.53 717.566 1245.35 718.778C1242.64 719.178 1239.9 719.719 1237.16 720.261C1235.76 720.537 1234.36 720.813 1232.97 721.071C1228.83 721.836 1224.71 722.442 1220.64 722.426ZM1191.09 754.653C1195.56 751.222 1200.58 751.198 1205.91 752.086C1207.67 752.379 1209.43 752.766 1211.22 753.158L1211.22 753.158L1211.23 753.159L1211.23 753.159L1211.23 753.159L1211.23 753.16C1212.16 753.363 1213.09 753.566 1214.02 753.759C1216.76 754.32 1219.51 754.778 1222.23 754.788C1224.94 754.799 1227.67 754.397 1230.38 753.9C1231.3 753.73 1232.22 753.549 1233.13 753.369C1234.91 753.02 1236.66 752.675 1238.41 752.417C1243.69 751.639 1248.7 751.697 1253.26 754.907C1262.89 761.695 1269.4 775.269 1271.47 789.312C1272.43 795.838 1271.24 802.08 1269.44 808.399C1268.82 810.57 1268.13 812.732 1267.44 814.915L1267.44 814.925L1267.43 814.956C1267.11 815.94 1266.8 816.929 1266.49 817.925C1265.49 821.132 1264.55 824.391 1263.86 827.728C1263.12 831.338 1262.7 835.105 1262.36 838.866C1262.25 840.057 1262.15 841.244 1262.05 842.425L1262.05 842.471C1261.83 845.024 1261.62 847.552 1261.34 850.034C1260.49 857.313 1259.03 863.98 1255.13 869.054C1246.85 879.836 1233.7 885.682 1222.35 882.087C1217.01 880.395 1213.57 875.052 1210.28 868.839C1209.71 867.75 1209.14 866.633 1208.56 865.508C1205.89 860.277 1203.11 854.851 1199.31 851.105C1197.05 848.891 1194.44 847.351 1191.73 846.085C1190.01 845.282 1188.23 844.578 1186.47 843.884L1186.45 843.876C1186.04 843.716 1185.64 843.557 1185.24 843.397C1184.88 843.253 1184.52 843.108 1184.16 842.963C1183.95 842.875 1183.73 842.786 1183.52 842.697C1178.13 840.443 1173.41 837.739 1171.03 831.623C1168.62 825.41 1168.85 818.589 1170.16 811.556C1171.04 806.82 1172.39 802.068 1173.73 797.378C1174.39 795.071 1175.04 792.78 1175.63 790.512C1176.07 788.809 1176.5 787.079 1176.93 785.343L1176.93 785.341L1176.93 785.34L1176.93 785.339L1176.93 785.338C1178.22 780.176 1179.52 774.949 1181.23 770.142C1183.52 763.734 1186.51 758.175 1191.09 754.653ZM1222.24 753.492C1219.59 753.482 1216.9 753.037 1214.18 752.479C1213.6 752.36 1213.03 752.237 1212.45 752.112C1212.11 752.037 1211.77 751.963 1211.43 751.888C1209.62 751.493 1207.82 751.097 1206.04 750.801C1200.66 749.904 1195.35 749.878 1190.58 753.538C1185.75 757.248 1182.65 763.07 1180.32 769.598C1178.58 774.483 1177.26 779.819 1175.97 785L1175.97 785.005L1175.96 785.012C1175.7 786.093 1175.43 787.167 1175.16 788.229C1175 788.856 1174.84 789.48 1174.68 790.098C1174.11 792.291 1173.47 794.544 1172.82 796.831C1171.47 801.563 1170.08 806.444 1169.19 811.252C1167.85 818.417 1167.57 825.597 1170.14 832.206C1172.72 838.841 1177.82 841.675 1183.21 843.93C1183.8 844.177 1184.39 844.417 1184.99 844.654C1185.37 844.807 1185.76 844.96 1186.15 845.112L1186.18 845.126L1186.22 845.14C1187.96 845.826 1189.69 846.51 1191.39 847.304C1194.06 848.55 1196.57 850.037 1198.7 852.138C1202.36 855.738 1205.02 860.935 1207.69 866.158C1208.28 867.3 1208.86 868.443 1209.46 869.572C1212.75 875.793 1216.38 881.528 1222.12 883.346C1233.85 887.063 1247.35 881.024 1255.84 869.968C1259.97 864.592 1261.47 857.579 1262.32 850.226C1262.61 847.719 1262.83 845.146 1263.05 842.579L1263.05 842.566C1263.15 841.38 1263.25 840.195 1263.35 839.018C1263.69 835.272 1264.11 831.579 1264.83 828.061C1265.5 824.803 1266.43 821.603 1267.42 818.41C1267.73 817.423 1268.04 816.434 1268.35 815.445L1268.35 815.443C1269.05 813.246 1269.75 811.045 1270.38 808.848C1272.2 802.463 1273.47 795.948 1272.45 789.068C1270.34 774.726 1263.68 760.779 1253.73 753.768C1248.9 750.363 1243.63 750.343 1238.29 751.13C1236.53 751.39 1234.74 751.741 1232.96 752.093C1232.05 752.271 1231.14 752.45 1230.24 752.617C1227.54 753.112 1224.87 753.502 1222.24 753.492Z" fill="#20272F"/>
</svg>
