<svg width="53" height="37" viewBox="0 0 53 37" fill="none" xmlns="http://www.w3.org/2000/svg">
<path d="M26.5 10.8409C24.5832 10.8409 22.7449 11.6024 21.3895 12.9577C20.0342 14.3131 19.2727 16.1514 19.2727 18.0682C19.2727 19.985 20.0342 21.8233 21.3895 23.1786C22.7449 24.534 24.5832 25.2955 26.5 25.2955C28.4168 25.2955 30.2551 24.534 31.6105 23.1786C32.9658 21.8233 33.7273 19.985 33.7273 18.0682C33.7273 16.1514 32.9658 14.3131 31.6105 12.9577C30.2551 11.6024 28.4168 10.8409 26.5 10.8409ZM26.5 30.1136C23.3053 30.1136 20.2415 28.8446 17.9826 26.5856C15.7236 24.3266 14.4545 21.2628 14.4545 18.0682C14.4545 14.8735 15.7236 11.8097 17.9826 9.55076C20.2415 7.2918 23.3053 6.02273 26.5 6.02273C29.6947 6.02273 32.7585 7.2918 35.0174 9.55076C37.2764 11.8097 38.5455 14.8735 38.5455 18.0682C38.5455 21.2628 37.2764 24.3266 35.0174 26.5856C32.7585 28.8446 29.6947 30.1136 26.5 30.1136ZM26.5 0C14.4545 0 4.16773 7.49227 0 18.0682C4.16773 28.6441 14.4545 36.1364 26.5 36.1364C38.5455 36.1364 48.8323 28.6441 53 18.0682C48.8323 7.49227 38.5455 0 26.5 0Z" fill="white"/>
</svg>
